G04 #@! TF.GenerationSoftware,KiCad,Pcbnew,(5.0.1)-3*
G04 #@! TF.CreationDate,2018-11-08T00:44:50+01:00*
G04 #@! TF.ProjectId,USB_switch,5553425F7377697463682E6B69636164,rev?*
G04 #@! TF.SameCoordinates,Original*
G04 #@! TF.FileFunction,Legend,Top*
G04 #@! TF.FilePolarity,Positive*
%FSLAX46Y46*%
G04 Gerber Fmt 4.6, Leading zero omitted, Abs format (unit mm)*
G04 Created by KiCad (PCBNEW (5.0.1)-3) date 08-Nov-18 00:44:50*
%MOMM*%
%LPD*%
G01*
G04 APERTURE LIST*
%ADD10C,0.120000*%
%ADD11C,0.150000*%
G04 APERTURE END LIST*
D10*
G04 #@! TO.C,Q1*
X96880000Y-91340000D02*
X95950000Y-91340000D01*
X93720000Y-91340000D02*
X94650000Y-91340000D01*
X93720000Y-91340000D02*
X93720000Y-93500000D01*
X96880000Y-91340000D02*
X96880000Y-92800000D01*
G04 #@! TO.C,R1*
X102990000Y-95328733D02*
X102990000Y-95671267D01*
X104010000Y-95328733D02*
X104010000Y-95671267D01*
G04 #@! TO.C,C1*
X104310000Y-100438748D02*
X104310000Y-100961252D01*
X102890000Y-100438748D02*
X102890000Y-100961252D01*
G04 #@! TO.C,R2*
X90071267Y-93910000D02*
X89728733Y-93910000D01*
X90071267Y-92890000D02*
X89728733Y-92890000D01*
G04 #@! TO.C,R3*
X90071267Y-95710000D02*
X89728733Y-95710000D01*
X90071267Y-94690000D02*
X89728733Y-94690000D01*
G04 #@! TO.C,Q1*
D11*
X93347619Y-92595238D02*
X93300000Y-92690476D01*
X93204761Y-92785714D01*
X93061904Y-92928571D01*
X93014285Y-93023809D01*
X93014285Y-93119047D01*
X93252380Y-93071428D02*
X93204761Y-93166666D01*
X93109523Y-93261904D01*
X92919047Y-93309523D01*
X92585714Y-93309523D01*
X92395238Y-93261904D01*
X92300000Y-93166666D01*
X92252380Y-93071428D01*
X92252380Y-92880952D01*
X92300000Y-92785714D01*
X92395238Y-92690476D01*
X92585714Y-92642857D01*
X92919047Y-92642857D01*
X93109523Y-92690476D01*
X93204761Y-92785714D01*
X93252380Y-92880952D01*
X93252380Y-93071428D01*
X93252380Y-91690476D02*
X93252380Y-92261904D01*
X93252380Y-91976190D02*
X92252380Y-91976190D01*
X92395238Y-92071428D01*
X92490476Y-92166666D01*
X92538095Y-92261904D01*
G04 #@! TO.C,R1*
X105452380Y-94866666D02*
X104976190Y-95200000D01*
X105452380Y-95438095D02*
X104452380Y-95438095D01*
X104452380Y-95057142D01*
X104500000Y-94961904D01*
X104547619Y-94914285D01*
X104642857Y-94866666D01*
X104785714Y-94866666D01*
X104880952Y-94914285D01*
X104928571Y-94961904D01*
X104976190Y-95057142D01*
X104976190Y-95438095D01*
X105452380Y-93914285D02*
X105452380Y-94485714D01*
X105452380Y-94200000D02*
X104452380Y-94200000D01*
X104595238Y-94295238D01*
X104690476Y-94390476D01*
X104738095Y-94485714D01*
G04 #@! TO.C,C1*
X105657142Y-100566666D02*
X105704761Y-100614285D01*
X105752380Y-100757142D01*
X105752380Y-100852380D01*
X105704761Y-100995238D01*
X105609523Y-101090476D01*
X105514285Y-101138095D01*
X105323809Y-101185714D01*
X105180952Y-101185714D01*
X104990476Y-101138095D01*
X104895238Y-101090476D01*
X104800000Y-100995238D01*
X104752380Y-100852380D01*
X104752380Y-100757142D01*
X104800000Y-100614285D01*
X104847619Y-100566666D01*
X105752380Y-99614285D02*
X105752380Y-100185714D01*
X105752380Y-99900000D02*
X104752380Y-99900000D01*
X104895238Y-99995238D01*
X104990476Y-100090476D01*
X105038095Y-100185714D01*
G04 #@! TO.C,R2*
X88433333Y-92452380D02*
X88100000Y-91976190D01*
X87861904Y-92452380D02*
X87861904Y-91452380D01*
X88242857Y-91452380D01*
X88338095Y-91500000D01*
X88385714Y-91547619D01*
X88433333Y-91642857D01*
X88433333Y-91785714D01*
X88385714Y-91880952D01*
X88338095Y-91928571D01*
X88242857Y-91976190D01*
X87861904Y-91976190D01*
X88814285Y-91547619D02*
X88861904Y-91500000D01*
X88957142Y-91452380D01*
X89195238Y-91452380D01*
X89290476Y-91500000D01*
X89338095Y-91547619D01*
X89385714Y-91642857D01*
X89385714Y-91738095D01*
X89338095Y-91880952D01*
X88766666Y-92452380D01*
X89385714Y-92452380D01*
G04 #@! TO.C,R3*
X90833333Y-97082380D02*
X90500000Y-96606190D01*
X90261904Y-97082380D02*
X90261904Y-96082380D01*
X90642857Y-96082380D01*
X90738095Y-96130000D01*
X90785714Y-96177619D01*
X90833333Y-96272857D01*
X90833333Y-96415714D01*
X90785714Y-96510952D01*
X90738095Y-96558571D01*
X90642857Y-96606190D01*
X90261904Y-96606190D01*
X91166666Y-96082380D02*
X91785714Y-96082380D01*
X91452380Y-96463333D01*
X91595238Y-96463333D01*
X91690476Y-96510952D01*
X91738095Y-96558571D01*
X91785714Y-96653809D01*
X91785714Y-96891904D01*
X91738095Y-96987142D01*
X91690476Y-97034761D01*
X91595238Y-97082380D01*
X91309523Y-97082380D01*
X91214285Y-97034761D01*
X91166666Y-96987142D01*
G04 #@! TD*
M02*
