G04 #@! TF.GenerationSoftware,KiCad,Pcbnew,(5.0.1)-3*
G04 #@! TF.CreationDate,2018-11-09T14:39:48+01:00*
G04 #@! TF.ProjectId,USB_switch,5553425F7377697463682E6B69636164,rev?*
G04 #@! TF.SameCoordinates,Original*
G04 #@! TF.FileFunction,Soldermask,Top*
G04 #@! TF.FilePolarity,Negative*
%FSLAX46Y46*%
G04 Gerber Fmt 4.6, Leading zero omitted, Abs format (unit mm)*
G04 Created by KiCad (PCBNEW (5.0.1)-3) date 09-Nov-18 14:39:48*
%MOMM*%
%LPD*%
G01*
G04 APERTURE LIST*
%ADD10C,0.100000*%
G04 APERTURE END LIST*
D10*
G36*
X88786693Y-107301859D02*
X89052437Y-107354719D01*
X89553087Y-107562095D01*
X89863608Y-107769579D01*
X90003663Y-107863161D01*
X90386839Y-108246337D01*
X90386841Y-108246340D01*
X90687905Y-108696913D01*
X90895281Y-109197563D01*
X91001000Y-109729050D01*
X91001000Y-110270950D01*
X90895281Y-110802437D01*
X90687905Y-111303087D01*
X90388871Y-111750622D01*
X90386839Y-111753663D01*
X90003663Y-112136839D01*
X90003660Y-112136841D01*
X89553087Y-112437905D01*
X89052437Y-112645281D01*
X88786693Y-112698141D01*
X88520951Y-112751000D01*
X87979049Y-112751000D01*
X87713307Y-112698141D01*
X87447563Y-112645281D01*
X86946913Y-112437905D01*
X86496340Y-112136841D01*
X86496337Y-112136839D01*
X86113161Y-111753663D01*
X86111129Y-111750622D01*
X85812095Y-111303087D01*
X85604719Y-110802437D01*
X85499000Y-110270950D01*
X85499000Y-109729050D01*
X85604719Y-109197563D01*
X85812095Y-108696913D01*
X86113159Y-108246340D01*
X86113161Y-108246337D01*
X86496337Y-107863161D01*
X86636392Y-107769579D01*
X86946913Y-107562095D01*
X87447563Y-107354719D01*
X87713307Y-107301859D01*
X87979049Y-107249000D01*
X88520951Y-107249000D01*
X88786693Y-107301859D01*
X88786693Y-107301859D01*
G37*
G36*
X106335734Y-105556043D02*
X106545202Y-105642807D01*
X106733723Y-105768773D01*
X106894038Y-105929088D01*
X107020004Y-106117609D01*
X107106768Y-106327077D01*
X107151000Y-106549446D01*
X107151000Y-106776176D01*
X107106768Y-106998545D01*
X107020004Y-107208013D01*
X106894038Y-107396534D01*
X106733723Y-107556849D01*
X106545202Y-107682815D01*
X106335734Y-107769579D01*
X106113365Y-107813811D01*
X105886635Y-107813811D01*
X105664266Y-107769579D01*
X105454798Y-107682815D01*
X105266277Y-107556849D01*
X105105962Y-107396534D01*
X104979996Y-107208013D01*
X104893232Y-106998545D01*
X104849000Y-106776176D01*
X104849000Y-106549446D01*
X104893232Y-106327077D01*
X104979996Y-106117609D01*
X105105962Y-105929088D01*
X105266277Y-105768773D01*
X105454798Y-105642807D01*
X105664266Y-105556043D01*
X105886635Y-105511811D01*
X106113365Y-105511811D01*
X106335734Y-105556043D01*
X106335734Y-105556043D01*
G37*
G36*
X102335734Y-105556043D02*
X102545202Y-105642807D01*
X102733723Y-105768773D01*
X102894038Y-105929088D01*
X103020004Y-106117609D01*
X103106768Y-106327077D01*
X103151000Y-106549446D01*
X103151000Y-106776176D01*
X103106768Y-106998545D01*
X103020004Y-107208013D01*
X102894038Y-107396534D01*
X102733723Y-107556849D01*
X102545202Y-107682815D01*
X102335734Y-107769579D01*
X102113365Y-107813811D01*
X101886635Y-107813811D01*
X101664266Y-107769579D01*
X101454798Y-107682815D01*
X101266277Y-107556849D01*
X101105962Y-107396534D01*
X100979996Y-107208013D01*
X100893232Y-106998545D01*
X100849000Y-106776176D01*
X100849000Y-106549446D01*
X100893232Y-106327077D01*
X100979996Y-106117609D01*
X101105962Y-105929088D01*
X101266277Y-105768773D01*
X101454798Y-105642807D01*
X101664266Y-105556043D01*
X101886635Y-105511811D01*
X102113365Y-105511811D01*
X102335734Y-105556043D01*
X102335734Y-105556043D01*
G37*
G36*
X98335734Y-105556043D02*
X98545202Y-105642807D01*
X98733723Y-105768773D01*
X98894038Y-105929088D01*
X99020004Y-106117609D01*
X99106768Y-106327077D01*
X99151000Y-106549446D01*
X99151000Y-106776176D01*
X99106768Y-106998545D01*
X99020004Y-107208013D01*
X98894038Y-107396534D01*
X98733723Y-107556849D01*
X98545202Y-107682815D01*
X98335734Y-107769579D01*
X98113365Y-107813811D01*
X97886635Y-107813811D01*
X97664266Y-107769579D01*
X97454798Y-107682815D01*
X97266277Y-107556849D01*
X97105962Y-107396534D01*
X96979996Y-107208013D01*
X96893232Y-106998545D01*
X96849000Y-106776176D01*
X96849000Y-106549446D01*
X96893232Y-106327077D01*
X96979996Y-106117609D01*
X97105962Y-105929088D01*
X97266277Y-105768773D01*
X97454798Y-105642807D01*
X97664266Y-105556043D01*
X97886635Y-105511811D01*
X98113365Y-105511811D01*
X98335734Y-105556043D01*
X98335734Y-105556043D01*
G37*
G36*
X94335734Y-105556043D02*
X94545202Y-105642807D01*
X94733723Y-105768773D01*
X94894038Y-105929088D01*
X95020004Y-106117609D01*
X95106768Y-106327077D01*
X95151000Y-106549446D01*
X95151000Y-106776176D01*
X95106768Y-106998545D01*
X95020004Y-107208013D01*
X94894038Y-107396534D01*
X94733723Y-107556849D01*
X94545202Y-107682815D01*
X94335734Y-107769579D01*
X94113365Y-107813811D01*
X93886635Y-107813811D01*
X93664266Y-107769579D01*
X93454798Y-107682815D01*
X93266277Y-107556849D01*
X93105962Y-107396534D01*
X92979996Y-107208013D01*
X92893232Y-106998545D01*
X92849000Y-106776176D01*
X92849000Y-106549446D01*
X92893232Y-106327077D01*
X92979996Y-106117609D01*
X93105962Y-105929088D01*
X93266277Y-105768773D01*
X93454798Y-105642807D01*
X93664266Y-105556043D01*
X93886635Y-105511811D01*
X94113365Y-105511811D01*
X94335734Y-105556043D01*
X94335734Y-105556043D01*
G37*
G36*
X89335734Y-100893232D02*
X89545202Y-100979996D01*
X89733723Y-101105962D01*
X89894038Y-101266277D01*
X90020004Y-101454798D01*
X90106768Y-101664266D01*
X90151000Y-101886635D01*
X90151000Y-102113365D01*
X90106768Y-102335734D01*
X90020004Y-102545202D01*
X89894038Y-102733723D01*
X89733723Y-102894038D01*
X89545202Y-103020004D01*
X89335734Y-103106768D01*
X89113365Y-103151000D01*
X88886635Y-103151000D01*
X88664266Y-103106768D01*
X88454798Y-103020004D01*
X88266277Y-102894038D01*
X88105962Y-102733723D01*
X87979996Y-102545202D01*
X87893232Y-102335734D01*
X87849000Y-102113365D01*
X87849000Y-101886635D01*
X87893232Y-101664266D01*
X87979996Y-101454798D01*
X88105962Y-101266277D01*
X88266277Y-101105962D01*
X88454798Y-100979996D01*
X88664266Y-100893232D01*
X88886635Y-100849000D01*
X89113365Y-100849000D01*
X89335734Y-100893232D01*
X89335734Y-100893232D01*
G37*
G36*
X102051000Y-103101000D02*
X97949000Y-103101000D01*
X97949000Y-100299000D01*
X102051000Y-100299000D01*
X102051000Y-103101000D01*
X102051000Y-103101000D01*
G37*
G36*
X104188677Y-101103465D02*
X104226364Y-101114898D01*
X104261103Y-101133466D01*
X104291548Y-101158452D01*
X104316534Y-101188897D01*
X104335102Y-101223636D01*
X104346535Y-101261323D01*
X104351000Y-101306661D01*
X104351000Y-102143339D01*
X104346535Y-102188677D01*
X104335102Y-102226364D01*
X104316534Y-102261103D01*
X104291548Y-102291548D01*
X104261103Y-102316534D01*
X104226364Y-102335102D01*
X104188677Y-102346535D01*
X104143339Y-102351000D01*
X103056661Y-102351000D01*
X103011323Y-102346535D01*
X102973636Y-102335102D01*
X102938897Y-102316534D01*
X102908452Y-102291548D01*
X102883466Y-102261103D01*
X102864898Y-102226364D01*
X102853465Y-102188677D01*
X102849000Y-102143339D01*
X102849000Y-101306661D01*
X102853465Y-101261323D01*
X102864898Y-101223636D01*
X102883466Y-101188897D01*
X102908452Y-101158452D01*
X102938897Y-101133466D01*
X102973636Y-101114898D01*
X103011323Y-101103465D01*
X103056661Y-101099000D01*
X104143339Y-101099000D01*
X104188677Y-101103465D01*
X104188677Y-101103465D01*
G37*
G36*
X104188677Y-99053465D02*
X104226364Y-99064898D01*
X104261103Y-99083466D01*
X104291548Y-99108452D01*
X104316534Y-99138897D01*
X104335102Y-99173636D01*
X104346535Y-99211323D01*
X104351000Y-99256661D01*
X104351000Y-100093339D01*
X104346535Y-100138677D01*
X104335102Y-100176364D01*
X104316534Y-100211103D01*
X104291548Y-100241548D01*
X104261103Y-100266534D01*
X104226364Y-100285102D01*
X104188677Y-100296535D01*
X104143339Y-100301000D01*
X103056661Y-100301000D01*
X103011323Y-100296535D01*
X102973636Y-100285102D01*
X102938897Y-100266534D01*
X102908452Y-100241548D01*
X102883466Y-100211103D01*
X102864898Y-100176364D01*
X102853465Y-100138677D01*
X102849000Y-100093339D01*
X102849000Y-99256661D01*
X102853465Y-99211323D01*
X102864898Y-99173636D01*
X102883466Y-99138897D01*
X102908452Y-99108452D01*
X102938897Y-99083466D01*
X102973636Y-99064898D01*
X103011323Y-99053465D01*
X103056661Y-99049000D01*
X104143339Y-99049000D01*
X104188677Y-99053465D01*
X104188677Y-99053465D01*
G37*
G36*
X89335734Y-96893232D02*
X89545202Y-96979996D01*
X89733723Y-97105962D01*
X89894038Y-97266277D01*
X90020004Y-97454798D01*
X90106768Y-97664266D01*
X90151000Y-97886635D01*
X90151000Y-98113365D01*
X90106768Y-98335734D01*
X90020004Y-98545202D01*
X89894038Y-98733723D01*
X89733723Y-98894038D01*
X89545202Y-99020004D01*
X89335734Y-99106768D01*
X89113365Y-99151000D01*
X88886635Y-99151000D01*
X88664266Y-99106768D01*
X88454798Y-99020004D01*
X88266277Y-98894038D01*
X88105962Y-98733723D01*
X87979996Y-98545202D01*
X87893232Y-98335734D01*
X87849000Y-98113365D01*
X87849000Y-97886635D01*
X87893232Y-97664266D01*
X87979996Y-97454798D01*
X88105962Y-97266277D01*
X88266277Y-97105962D01*
X88454798Y-96979996D01*
X88664266Y-96893232D01*
X88886635Y-96849000D01*
X89113365Y-96849000D01*
X89335734Y-96893232D01*
X89335734Y-96893232D01*
G37*
G36*
X102051000Y-98401000D02*
X97949000Y-98401000D01*
X97949000Y-95599000D01*
X102051000Y-95599000D01*
X102051000Y-98401000D01*
X102051000Y-98401000D01*
G37*
G36*
X103864499Y-95803445D02*
X103901993Y-95814819D01*
X103936557Y-95833294D01*
X103966847Y-95858153D01*
X103991706Y-95888443D01*
X104010181Y-95923007D01*
X104021555Y-95960501D01*
X104026000Y-96005638D01*
X104026000Y-96744362D01*
X104021555Y-96789499D01*
X104010181Y-96826993D01*
X103991706Y-96861557D01*
X103966847Y-96891847D01*
X103936557Y-96916706D01*
X103901993Y-96935181D01*
X103864499Y-96946555D01*
X103819362Y-96951000D01*
X103180638Y-96951000D01*
X103135501Y-96946555D01*
X103098007Y-96935181D01*
X103063443Y-96916706D01*
X103033153Y-96891847D01*
X103008294Y-96861557D01*
X102989819Y-96826993D01*
X102978445Y-96789499D01*
X102974000Y-96744362D01*
X102974000Y-96005638D01*
X102978445Y-95960501D01*
X102989819Y-95923007D01*
X103008294Y-95888443D01*
X103033153Y-95858153D01*
X103063443Y-95833294D01*
X103098007Y-95814819D01*
X103135501Y-95803445D01*
X103180638Y-95799000D01*
X103819362Y-95799000D01*
X103864499Y-95803445D01*
X103864499Y-95803445D01*
G37*
G36*
X91189499Y-94678445D02*
X91226993Y-94689819D01*
X91261557Y-94708294D01*
X91291847Y-94733153D01*
X91316706Y-94763443D01*
X91335181Y-94798007D01*
X91346555Y-94835501D01*
X91351000Y-94880638D01*
X91351000Y-95519362D01*
X91346555Y-95564499D01*
X91335181Y-95601993D01*
X91316706Y-95636557D01*
X91291847Y-95666847D01*
X91261557Y-95691706D01*
X91226993Y-95710181D01*
X91189499Y-95721555D01*
X91144362Y-95726000D01*
X90405638Y-95726000D01*
X90360501Y-95721555D01*
X90323007Y-95710181D01*
X90288443Y-95691706D01*
X90258153Y-95666847D01*
X90233294Y-95636557D01*
X90214819Y-95601993D01*
X90203445Y-95564499D01*
X90199000Y-95519362D01*
X90199000Y-94880638D01*
X90203445Y-94835501D01*
X90214819Y-94798007D01*
X90233294Y-94763443D01*
X90258153Y-94733153D01*
X90288443Y-94708294D01*
X90323007Y-94689819D01*
X90360501Y-94678445D01*
X90405638Y-94674000D01*
X91144362Y-94674000D01*
X91189499Y-94678445D01*
X91189499Y-94678445D01*
G37*
G36*
X89439499Y-94678445D02*
X89476993Y-94689819D01*
X89511557Y-94708294D01*
X89541847Y-94733153D01*
X89566706Y-94763443D01*
X89585181Y-94798007D01*
X89596555Y-94835501D01*
X89601000Y-94880638D01*
X89601000Y-95519362D01*
X89596555Y-95564499D01*
X89585181Y-95601993D01*
X89566706Y-95636557D01*
X89541847Y-95666847D01*
X89511557Y-95691706D01*
X89476993Y-95710181D01*
X89439499Y-95721555D01*
X89394362Y-95726000D01*
X88655638Y-95726000D01*
X88610501Y-95721555D01*
X88573007Y-95710181D01*
X88538443Y-95691706D01*
X88508153Y-95666847D01*
X88483294Y-95636557D01*
X88464819Y-95601993D01*
X88453445Y-95564499D01*
X88449000Y-95519362D01*
X88449000Y-94880638D01*
X88453445Y-94835501D01*
X88464819Y-94798007D01*
X88483294Y-94763443D01*
X88508153Y-94733153D01*
X88538443Y-94708294D01*
X88573007Y-94689819D01*
X88610501Y-94678445D01*
X88655638Y-94674000D01*
X89394362Y-94674000D01*
X89439499Y-94678445D01*
X89439499Y-94678445D01*
G37*
G36*
X103864499Y-94053445D02*
X103901993Y-94064819D01*
X103936557Y-94083294D01*
X103966847Y-94108153D01*
X103991706Y-94138443D01*
X104010181Y-94173007D01*
X104021555Y-94210501D01*
X104026000Y-94255638D01*
X104026000Y-94994362D01*
X104021555Y-95039499D01*
X104010181Y-95076993D01*
X103991706Y-95111557D01*
X103966847Y-95141847D01*
X103936557Y-95166706D01*
X103901993Y-95185181D01*
X103864499Y-95196555D01*
X103819362Y-95201000D01*
X103180638Y-95201000D01*
X103135501Y-95196555D01*
X103098007Y-95185181D01*
X103063443Y-95166706D01*
X103033153Y-95141847D01*
X103008294Y-95111557D01*
X102989819Y-95076993D01*
X102978445Y-95039499D01*
X102974000Y-94994362D01*
X102974000Y-94255638D01*
X102978445Y-94210501D01*
X102989819Y-94173007D01*
X103008294Y-94138443D01*
X103033153Y-94108153D01*
X103063443Y-94083294D01*
X103098007Y-94064819D01*
X103135501Y-94053445D01*
X103180638Y-94049000D01*
X103819362Y-94049000D01*
X103864499Y-94053445D01*
X103864499Y-94053445D01*
G37*
G36*
X91189499Y-92878445D02*
X91226993Y-92889819D01*
X91261557Y-92908294D01*
X91291847Y-92933153D01*
X91316706Y-92963443D01*
X91335181Y-92998007D01*
X91346555Y-93035501D01*
X91351000Y-93080638D01*
X91351000Y-93719362D01*
X91346555Y-93764499D01*
X91335181Y-93801993D01*
X91316706Y-93836557D01*
X91291847Y-93866847D01*
X91261557Y-93891706D01*
X91226993Y-93910181D01*
X91189499Y-93921555D01*
X91144362Y-93926000D01*
X90405638Y-93926000D01*
X90360501Y-93921555D01*
X90323007Y-93910181D01*
X90288443Y-93891706D01*
X90258153Y-93866847D01*
X90233294Y-93836557D01*
X90214819Y-93801993D01*
X90203445Y-93764499D01*
X90199000Y-93719362D01*
X90199000Y-93080638D01*
X90203445Y-93035501D01*
X90214819Y-92998007D01*
X90233294Y-92963443D01*
X90258153Y-92933153D01*
X90288443Y-92908294D01*
X90323007Y-92889819D01*
X90360501Y-92878445D01*
X90405638Y-92874000D01*
X91144362Y-92874000D01*
X91189499Y-92878445D01*
X91189499Y-92878445D01*
G37*
G36*
X89439499Y-92878445D02*
X89476993Y-92889819D01*
X89511557Y-92908294D01*
X89541847Y-92933153D01*
X89566706Y-92963443D01*
X89585181Y-92998007D01*
X89596555Y-93035501D01*
X89601000Y-93080638D01*
X89601000Y-93719362D01*
X89596555Y-93764499D01*
X89585181Y-93801993D01*
X89566706Y-93836557D01*
X89541847Y-93866847D01*
X89511557Y-93891706D01*
X89476993Y-93910181D01*
X89439499Y-93921555D01*
X89394362Y-93926000D01*
X88655638Y-93926000D01*
X88610501Y-93921555D01*
X88573007Y-93910181D01*
X88538443Y-93891706D01*
X88508153Y-93866847D01*
X88483294Y-93836557D01*
X88464819Y-93801993D01*
X88453445Y-93764499D01*
X88449000Y-93719362D01*
X88449000Y-93080638D01*
X88453445Y-93035501D01*
X88464819Y-92998007D01*
X88483294Y-92963443D01*
X88508153Y-92933153D01*
X88538443Y-92908294D01*
X88573007Y-92889819D01*
X88610501Y-92878445D01*
X88655638Y-92874000D01*
X89394362Y-92874000D01*
X89439499Y-92878445D01*
X89439499Y-92878445D01*
G37*
G36*
X102051000Y-93701000D02*
X97949000Y-93701000D01*
X97949000Y-90899000D01*
X102051000Y-90899000D01*
X102051000Y-93701000D01*
X102051000Y-93701000D01*
G37*
G36*
X94801000Y-93601000D02*
X93899000Y-93601000D01*
X93899000Y-92599000D01*
X94801000Y-92599000D01*
X94801000Y-93601000D01*
X94801000Y-93601000D01*
G37*
G36*
X96701000Y-93601000D02*
X95799000Y-93601000D01*
X95799000Y-92599000D01*
X96701000Y-92599000D01*
X96701000Y-93601000D01*
X96701000Y-93601000D01*
G37*
G36*
X112286694Y-87301860D02*
X112552437Y-87354719D01*
X113053087Y-87562095D01*
X113435434Y-87817572D01*
X113503663Y-87863161D01*
X113886839Y-88246337D01*
X113886841Y-88246340D01*
X114187905Y-88696913D01*
X114395281Y-89197563D01*
X114501000Y-89729050D01*
X114501000Y-90270950D01*
X114395281Y-90802437D01*
X114187905Y-91303087D01*
X113988845Y-91601000D01*
X113886839Y-91753663D01*
X113503663Y-92136839D01*
X113503660Y-92136841D01*
X113053087Y-92437905D01*
X112552437Y-92645281D01*
X112286693Y-92698141D01*
X112020951Y-92751000D01*
X111479049Y-92751000D01*
X111213306Y-92698140D01*
X110947563Y-92645281D01*
X110446913Y-92437905D01*
X109996340Y-92136841D01*
X109996337Y-92136839D01*
X109613161Y-91753663D01*
X109511155Y-91601000D01*
X109312095Y-91303087D01*
X109104719Y-90802437D01*
X108999000Y-90270950D01*
X108999000Y-89729050D01*
X109104719Y-89197563D01*
X109312095Y-88696913D01*
X109613159Y-88246340D01*
X109613161Y-88246337D01*
X109996337Y-87863161D01*
X110064566Y-87817572D01*
X110446913Y-87562095D01*
X110947563Y-87354719D01*
X111213306Y-87301860D01*
X111479049Y-87249000D01*
X112020951Y-87249000D01*
X112286694Y-87301860D01*
X112286694Y-87301860D01*
G37*
G36*
X95751000Y-91601000D02*
X94849000Y-91601000D01*
X94849000Y-90599000D01*
X95751000Y-90599000D01*
X95751000Y-91601000D01*
X95751000Y-91601000D01*
G37*
G36*
X96733643Y-87939781D02*
X96879415Y-88000162D01*
X97010611Y-88087824D01*
X97122176Y-88199389D01*
X97209838Y-88330585D01*
X97270219Y-88476357D01*
X97301000Y-88631107D01*
X97301000Y-88788893D01*
X97270219Y-88943643D01*
X97209838Y-89089415D01*
X97122176Y-89220611D01*
X97010611Y-89332176D01*
X96879415Y-89419838D01*
X96733643Y-89480219D01*
X96578893Y-89511000D01*
X96421107Y-89511000D01*
X96266357Y-89480219D01*
X96120585Y-89419838D01*
X95989389Y-89332176D01*
X95877824Y-89220611D01*
X95790162Y-89089415D01*
X95729781Y-88943643D01*
X95699000Y-88788893D01*
X95699000Y-88631107D01*
X95729781Y-88476357D01*
X95790162Y-88330585D01*
X95877824Y-88199389D01*
X95989389Y-88087824D01*
X96120585Y-88000162D01*
X96266357Y-87939781D01*
X96421107Y-87909000D01*
X96578893Y-87909000D01*
X96733643Y-87939781D01*
X96733643Y-87939781D01*
G37*
G36*
X99233643Y-87939781D02*
X99379415Y-88000162D01*
X99510611Y-88087824D01*
X99622176Y-88199389D01*
X99709838Y-88330585D01*
X99770219Y-88476357D01*
X99801000Y-88631107D01*
X99801000Y-88788893D01*
X99770219Y-88943643D01*
X99709838Y-89089415D01*
X99622176Y-89220611D01*
X99510611Y-89332176D01*
X99379415Y-89419838D01*
X99233643Y-89480219D01*
X99078893Y-89511000D01*
X98921107Y-89511000D01*
X98766357Y-89480219D01*
X98620585Y-89419838D01*
X98489389Y-89332176D01*
X98377824Y-89220611D01*
X98290162Y-89089415D01*
X98229781Y-88943643D01*
X98199000Y-88788893D01*
X98199000Y-88631107D01*
X98229781Y-88476357D01*
X98290162Y-88330585D01*
X98377824Y-88199389D01*
X98489389Y-88087824D01*
X98620585Y-88000162D01*
X98766357Y-87939781D01*
X98921107Y-87909000D01*
X99078893Y-87909000D01*
X99233643Y-87939781D01*
X99233643Y-87939781D01*
G37*
G36*
X101233643Y-87939781D02*
X101379415Y-88000162D01*
X101510611Y-88087824D01*
X101622176Y-88199389D01*
X101709838Y-88330585D01*
X101770219Y-88476357D01*
X101801000Y-88631107D01*
X101801000Y-88788893D01*
X101770219Y-88943643D01*
X101709838Y-89089415D01*
X101622176Y-89220611D01*
X101510611Y-89332176D01*
X101379415Y-89419838D01*
X101233643Y-89480219D01*
X101078893Y-89511000D01*
X100921107Y-89511000D01*
X100766357Y-89480219D01*
X100620585Y-89419838D01*
X100489389Y-89332176D01*
X100377824Y-89220611D01*
X100290162Y-89089415D01*
X100229781Y-88943643D01*
X100199000Y-88788893D01*
X100199000Y-88631107D01*
X100229781Y-88476357D01*
X100290162Y-88330585D01*
X100377824Y-88199389D01*
X100489389Y-88087824D01*
X100620585Y-88000162D01*
X100766357Y-87939781D01*
X100921107Y-87909000D01*
X101078893Y-87909000D01*
X101233643Y-87939781D01*
X101233643Y-87939781D01*
G37*
G36*
X103733643Y-87939781D02*
X103879415Y-88000162D01*
X104010611Y-88087824D01*
X104122176Y-88199389D01*
X104209838Y-88330585D01*
X104270219Y-88476357D01*
X104301000Y-88631107D01*
X104301000Y-88788893D01*
X104270219Y-88943643D01*
X104209838Y-89089415D01*
X104122176Y-89220611D01*
X104010611Y-89332176D01*
X103879415Y-89419838D01*
X103733643Y-89480219D01*
X103578893Y-89511000D01*
X103421107Y-89511000D01*
X103266357Y-89480219D01*
X103120585Y-89419838D01*
X102989389Y-89332176D01*
X102877824Y-89220611D01*
X102790162Y-89089415D01*
X102729781Y-88943643D01*
X102699000Y-88788893D01*
X102699000Y-88631107D01*
X102729781Y-88476357D01*
X102790162Y-88330585D01*
X102877824Y-88199389D01*
X102989389Y-88087824D01*
X103120585Y-88000162D01*
X103266357Y-87939781D01*
X103421107Y-87909000D01*
X103578893Y-87909000D01*
X103733643Y-87939781D01*
X103733643Y-87939781D01*
G37*
G36*
X107168252Y-84027818D02*
X107168254Y-84027819D01*
X107168255Y-84027819D01*
X107541513Y-84182427D01*
X107541514Y-84182428D01*
X107877439Y-84406886D01*
X108163114Y-84692561D01*
X108163116Y-84692564D01*
X108387573Y-85028487D01*
X108542181Y-85401745D01*
X108621000Y-85797994D01*
X108621000Y-86202006D01*
X108542181Y-86598255D01*
X108387573Y-86971513D01*
X108387572Y-86971514D01*
X108163114Y-87307439D01*
X107877439Y-87593114D01*
X107877436Y-87593116D01*
X107541513Y-87817573D01*
X107168255Y-87972181D01*
X107168254Y-87972181D01*
X107168252Y-87972182D01*
X106772007Y-88051000D01*
X106367993Y-88051000D01*
X105971748Y-87972182D01*
X105971746Y-87972181D01*
X105971745Y-87972181D01*
X105598487Y-87817573D01*
X105262564Y-87593116D01*
X105262561Y-87593114D01*
X104976886Y-87307439D01*
X104752428Y-86971514D01*
X104752427Y-86971513D01*
X104597819Y-86598255D01*
X104519000Y-86202006D01*
X104519000Y-85797994D01*
X104597819Y-85401745D01*
X104752427Y-85028487D01*
X104976884Y-84692564D01*
X104976886Y-84692561D01*
X105262561Y-84406886D01*
X105598486Y-84182428D01*
X105598487Y-84182427D01*
X105971745Y-84027819D01*
X105971746Y-84027819D01*
X105971748Y-84027818D01*
X106367993Y-83949000D01*
X106772007Y-83949000D01*
X107168252Y-84027818D01*
X107168252Y-84027818D01*
G37*
G36*
X94028252Y-84027818D02*
X94028254Y-84027819D01*
X94028255Y-84027819D01*
X94401513Y-84182427D01*
X94401514Y-84182428D01*
X94737439Y-84406886D01*
X95023114Y-84692561D01*
X95023116Y-84692564D01*
X95247573Y-85028487D01*
X95402181Y-85401745D01*
X95481000Y-85797994D01*
X95481000Y-86202006D01*
X95402181Y-86598255D01*
X95247573Y-86971513D01*
X95247572Y-86971514D01*
X95023114Y-87307439D01*
X94737439Y-87593114D01*
X94737436Y-87593116D01*
X94401513Y-87817573D01*
X94028255Y-87972181D01*
X94028254Y-87972181D01*
X94028252Y-87972182D01*
X93632007Y-88051000D01*
X93227993Y-88051000D01*
X92831748Y-87972182D01*
X92831746Y-87972181D01*
X92831745Y-87972181D01*
X92458487Y-87817573D01*
X92122564Y-87593116D01*
X92122561Y-87593114D01*
X91836886Y-87307439D01*
X91612428Y-86971514D01*
X91612427Y-86971513D01*
X91457819Y-86598255D01*
X91379000Y-86202006D01*
X91379000Y-85797994D01*
X91457819Y-85401745D01*
X91612427Y-85028487D01*
X91836884Y-84692564D01*
X91836886Y-84692561D01*
X92122561Y-84406886D01*
X92458486Y-84182428D01*
X92458487Y-84182427D01*
X92831745Y-84027819D01*
X92831746Y-84027819D01*
X92831748Y-84027818D01*
X93227993Y-83949000D01*
X93632007Y-83949000D01*
X94028252Y-84027818D01*
X94028252Y-84027818D01*
G37*
M02*
