M48
;DRILL file {KiCad (5.0.1)-3} date 09-Nov-18 14:39:58
;FORMAT={-:-/ absolute / metric / decimal}
FMAT,2
METRIC,TZ
T1C0.400
T2C0.920
T3C1.000
T4C1.500
T5C2.300
T6C2.700
%
G90
G05
M71
T1
X87.Y-86.
X87.Y-89.
X87.Y-92.
X87.Y-95.
X87.Y-100.
X87.Y-105.
X88.Y-116.
X88.Y-119.
X90.Y-86.
X90.Y-89.
X90.Y-105.
X91.Y-113.
X91.Y-116.
X91.Y-119.
X92.Y-91.
X92.Y-100.
X92.Y-103.
X93.Y-89.
X94.Y-80.
X94.Y-83.
X94.Y-97.
X94.Y-110.
X94.Y-113.
X94.Y-116.
X94.Y-119.
X94.4Y-94.625
X94.5Y-100.
X94.5Y-103.
X97.Y-80.
X97.Y-83.
X97.Y-86.5
X97.Y-110.
X97.8Y-89.6
X97.8Y-94.625
X100.Y-80.
X100.Y-83.
X100.Y-86.5
X100.Y-99.4
X100.Y-110.
X100.Y-113.
X100.Y-116.
X100.Y-119.
X103.Y-80.
X103.Y-83.
X103.Y-86.5
X103.Y-110.
X105.1Y-92.9
X105.3Y-96.5
X105.3Y-100.7
X106.Y-80.
X106.Y-83.
X106.Y-110.
X106.Y-113.
X106.Y-116.
X106.Y-119.
X109.Y-80.
X109.Y-83.
X109.Y-93.
X109.Y-96.
X109.Y-99.
X109.Y-102.
X109.Y-110.
X109.Y-113.
X110.Y-86.
X112.Y-80.
X112.Y-83.
X112.Y-96.
X112.Y-99.
X112.Y-102.
X112.Y-110.
X112.Y-113.
X113.Y-86.
T2
X96.5Y-88.71
X99.Y-88.71
X101.Y-88.71
X103.5Y-88.71
T3
X89.Y-98.
X94.Y-106.663
X89.Y-102.
X102.Y-106.663
X98.Y-106.663
X106.Y-106.663
T5
X93.43Y-86.
X106.57Y-86.
T6
X111.75Y-90.
X88.25Y-110.
T4
X100.5Y-92.3G85X99.5Y-92.3
G05
X100.5Y-97.G85X99.5Y-97.
G05
X100.5Y-101.7G85X99.5Y-101.7
G05
T0
M30
