G04 #@! TF.GenerationSoftware,KiCad,Pcbnew,(5.0.1)-3*
G04 #@! TF.CreationDate,2018-11-09T14:39:48+01:00*
G04 #@! TF.ProjectId,USB_switch,5553425F7377697463682E6B69636164,rev?*
G04 #@! TF.SameCoordinates,Original*
G04 #@! TF.FileFunction,Copper,L2,Bot,Signal*
G04 #@! TF.FilePolarity,Positive*
%FSLAX46Y46*%
G04 Gerber Fmt 4.6, Leading zero omitted, Abs format (unit mm)*
G04 Created by KiCad (PCBNEW (5.0.1)-3) date 09-Nov-18 14:39:48*
%MOMM*%
%LPD*%
G01*
G04 APERTURE LIST*
G04 #@! TA.AperFunction,ComponentPad*
%ADD10R,4.000000X2.700000*%
G04 #@! TD*
G04 #@! TA.AperFunction,SMDPad,CuDef*
%ADD11R,2.200000X4.000000*%
G04 #@! TD*
G04 #@! TA.AperFunction,ComponentPad*
%ADD12C,2.200000*%
G04 #@! TD*
G04 #@! TA.AperFunction,ComponentPad*
%ADD13C,5.400000*%
G04 #@! TD*
G04 #@! TA.AperFunction,ComponentPad*
%ADD14C,1.500000*%
G04 #@! TD*
G04 #@! TA.AperFunction,ComponentPad*
%ADD15C,4.000000*%
G04 #@! TD*
G04 #@! TA.AperFunction,ViaPad*
%ADD16C,0.800000*%
G04 #@! TD*
G04 #@! TA.AperFunction,Conductor*
%ADD17C,0.250000*%
G04 #@! TD*
G04 #@! TA.AperFunction,Conductor*
%ADD18C,1.000000*%
G04 #@! TD*
G04 #@! TA.AperFunction,Conductor*
%ADD19C,0.180000*%
G04 #@! TD*
G04 APERTURE END LIST*
D10*
G04 #@! TO.P,SW1,1*
G04 #@! TO.N,GND*
X100000000Y-101700000D03*
G04 #@! TO.P,SW1,2*
G04 #@! TO.N,Net-(R1-Pad2)*
X100000000Y-97000000D03*
G04 #@! TO.P,SW1,3*
G04 #@! TO.N,Net-(Q1-Pad2)*
X100000000Y-92300000D03*
G04 #@! TD*
D11*
G04 #@! TO.P,W12,1*
G04 #@! TO.N,Net-(J1-Pad5)*
X111000000Y-105662811D03*
G04 #@! TD*
D12*
G04 #@! TO.P,W8,1*
G04 #@! TO.N,Net-(J1-Pad2)*
X98000000Y-106662811D03*
G04 #@! TD*
G04 #@! TO.P,W6,1*
G04 #@! TO.N,GND*
X106000000Y-106662811D03*
G04 #@! TD*
G04 #@! TO.P,W7,1*
G04 #@! TO.N,Net-(J1-Pad3)*
X102000000Y-106662811D03*
G04 #@! TD*
G04 #@! TO.P,W1,1*
G04 #@! TO.N,Net-(Q1-Pad2)*
X94000000Y-106662811D03*
G04 #@! TD*
G04 #@! TO.P,W9,1*
G04 #@! TO.N,Net-(R3-Pad2)*
X89000000Y-98000000D03*
G04 #@! TD*
G04 #@! TO.P,W10,1*
G04 #@! TO.N,GND*
X89000000Y-102000000D03*
G04 #@! TD*
D13*
G04 #@! TO.P,H1,1*
G04 #@! TO.N,N/C*
X88250000Y-110000000D03*
G04 #@! TD*
G04 #@! TO.P,H2,1*
G04 #@! TO.N,N/C*
X111750000Y-90000000D03*
G04 #@! TD*
D14*
G04 #@! TO.P,J1,3*
G04 #@! TO.N,Net-(J1-Pad3)*
X101000000Y-88710000D03*
G04 #@! TO.P,J1,2*
G04 #@! TO.N,Net-(J1-Pad2)*
X99000000Y-88710000D03*
G04 #@! TO.P,J1,4*
G04 #@! TO.N,GND*
X103500000Y-88710000D03*
G04 #@! TO.P,J1,1*
G04 #@! TO.N,Vout*
X96500000Y-88710000D03*
D15*
G04 #@! TO.P,J1,5*
G04 #@! TO.N,Net-(J1-Pad5)*
X106570000Y-86000000D03*
X93430000Y-86000000D03*
G04 #@! TD*
D16*
G04 #@! TO.N,Net-(C1-Pad1)*
X97800000Y-94625000D03*
X94400000Y-94625000D03*
G04 #@! TO.N,GND*
X88000000Y-119000000D03*
X88000000Y-116000000D03*
X91000000Y-116000000D03*
X91000000Y-119000000D03*
X94000000Y-119000000D03*
X94000000Y-116000000D03*
X94000000Y-113000000D03*
X94000000Y-110000000D03*
X91000000Y-113000000D03*
X100000000Y-119000000D03*
X100000000Y-116000000D03*
X100000000Y-113000000D03*
X100000000Y-110000000D03*
X97000000Y-110000000D03*
X103000000Y-110000000D03*
X106000000Y-110000000D03*
X106000000Y-113000000D03*
X106000000Y-116000000D03*
X106000000Y-119000000D03*
X109000000Y-113000000D03*
X109000000Y-110000000D03*
X112000000Y-110000000D03*
X112000000Y-113000000D03*
X87000000Y-105000000D03*
X90000000Y-105000000D03*
X92000000Y-100000000D03*
X92000000Y-103000000D03*
X90000000Y-89000000D03*
X94000000Y-80000000D03*
X97000000Y-80000000D03*
X100000000Y-80000000D03*
X103000000Y-80000000D03*
X106000000Y-80000000D03*
X109000000Y-80000000D03*
X97000000Y-83000000D03*
X100000000Y-83000000D03*
X112000000Y-80000000D03*
X112000000Y-102000000D03*
X112000000Y-99000000D03*
X112000000Y-96000000D03*
X109000000Y-96000000D03*
X109000000Y-99000000D03*
X109000000Y-102000000D03*
X109000000Y-93000000D03*
X87000000Y-95000000D03*
X87000000Y-92000000D03*
X87000000Y-89000000D03*
X87000000Y-86000000D03*
X90000000Y-86000000D03*
X97800000Y-89600000D03*
X92000000Y-91000000D03*
X93000000Y-89000000D03*
X94000000Y-97000000D03*
X100000000Y-99400000D03*
X105300000Y-96500000D03*
X105300000Y-100700000D03*
X103000000Y-83000000D03*
X87000000Y-100000000D03*
X105100000Y-92900000D03*
X97000000Y-86500000D03*
X100000000Y-86500000D03*
X103000000Y-86500000D03*
X94500000Y-100000000D03*
X94500000Y-103000000D03*
X106000000Y-83000000D03*
X109000000Y-83000000D03*
X112000000Y-83000000D03*
X110000000Y-86000000D03*
X113000000Y-86000000D03*
X94000000Y-83000000D03*
G04 #@! TD*
D17*
G04 #@! TO.N,Net-(C1-Pad1)*
X97800000Y-94625000D02*
X94400000Y-94625000D01*
D18*
G04 #@! TO.N,Net-(J1-Pad5)*
X108900000Y-105662811D02*
X111000000Y-105662811D01*
X106570000Y-103332811D02*
X108900000Y-105662811D01*
X106570000Y-85000000D02*
X106570000Y-103332811D01*
X93430000Y-85000000D02*
X106570000Y-85000000D01*
G04 #@! TD*
D19*
G04 #@! TO.N,GND*
G36*
X113618120Y-78403453D02*
X113731740Y-78437756D01*
X113836537Y-78493478D01*
X113928506Y-78568486D01*
X114004164Y-78659940D01*
X114060611Y-78764337D01*
X114095710Y-78877723D01*
X114110000Y-79013683D01*
X114110000Y-88150133D01*
X114072484Y-88093986D01*
X113656014Y-87677516D01*
X113166296Y-87350297D01*
X112622151Y-87124904D01*
X112044489Y-87010000D01*
X111455511Y-87010000D01*
X110877849Y-87124904D01*
X110333704Y-87350297D01*
X109843986Y-87677516D01*
X109427516Y-88093986D01*
X109100297Y-88583704D01*
X108874904Y-89127849D01*
X108760000Y-89705511D01*
X108760000Y-90294489D01*
X108874904Y-90872151D01*
X109100297Y-91416296D01*
X109427516Y-91906014D01*
X109843986Y-92322484D01*
X110333704Y-92649703D01*
X110877849Y-92875096D01*
X111455511Y-92990000D01*
X112044489Y-92990000D01*
X112622151Y-92875096D01*
X113166296Y-92649703D01*
X113656014Y-92322484D01*
X114072484Y-91906014D01*
X114110000Y-91849867D01*
X114110001Y-115360000D01*
X111230841Y-115360000D01*
X111230167Y-115360066D01*
X111227697Y-115360075D01*
X111210744Y-115361797D01*
X111193709Y-115361678D01*
X111188290Y-115362209D01*
X110606000Y-115423410D01*
X110571358Y-115430521D01*
X110536653Y-115437142D01*
X110531440Y-115438715D01*
X109972126Y-115611853D01*
X109939534Y-115625553D01*
X109906768Y-115638792D01*
X109901964Y-115641346D01*
X109901959Y-115641348D01*
X109901955Y-115641351D01*
X109386928Y-115919824D01*
X109357652Y-115939570D01*
X109328045Y-115958945D01*
X109323833Y-115962381D01*
X109323826Y-115962386D01*
X109323820Y-115962392D01*
X108872693Y-116335597D01*
X108847794Y-116360670D01*
X108822531Y-116385410D01*
X108819060Y-116389605D01*
X108449008Y-116843333D01*
X108429454Y-116872763D01*
X108409476Y-116901941D01*
X108406889Y-116906726D01*
X108406886Y-116906730D01*
X108406886Y-116906731D01*
X108132012Y-117423695D01*
X108118540Y-117456380D01*
X108104617Y-117488865D01*
X108103007Y-117494067D01*
X107933780Y-118054575D01*
X107926918Y-118089230D01*
X107919565Y-118123824D01*
X107918996Y-118129240D01*
X107861861Y-118711942D01*
X107860000Y-118730842D01*
X107860001Y-121610000D01*
X86519077Y-121610000D01*
X86381880Y-121596548D01*
X86268261Y-121562244D01*
X86163461Y-121506521D01*
X86071491Y-121431512D01*
X85995836Y-121340061D01*
X85939389Y-121235663D01*
X85904290Y-121122277D01*
X85890000Y-120986317D01*
X85890000Y-119526319D01*
X95115184Y-119526319D01*
X95156192Y-119891914D01*
X95267430Y-120242580D01*
X95444661Y-120564963D01*
X95681135Y-120846781D01*
X95967843Y-121077301D01*
X96293867Y-121247742D01*
X96646786Y-121351611D01*
X97013160Y-121384954D01*
X97379032Y-121346499D01*
X97730467Y-121237712D01*
X98054079Y-121062736D01*
X98337541Y-120828235D01*
X98570057Y-120543143D01*
X98742769Y-120218318D01*
X98849100Y-119866132D01*
X98882419Y-119526319D01*
X101115184Y-119526319D01*
X101156192Y-119891914D01*
X101267430Y-120242580D01*
X101444661Y-120564963D01*
X101681135Y-120846781D01*
X101967843Y-121077301D01*
X102293867Y-121247742D01*
X102646786Y-121351611D01*
X103013160Y-121384954D01*
X103379032Y-121346499D01*
X103730467Y-121237712D01*
X104054079Y-121062736D01*
X104337541Y-120828235D01*
X104570057Y-120543143D01*
X104742769Y-120218318D01*
X104849100Y-119866132D01*
X104885000Y-119500000D01*
X104884265Y-119447368D01*
X104838157Y-119082381D01*
X104722033Y-118733301D01*
X104540318Y-118413425D01*
X104299933Y-118134936D01*
X104010034Y-117908442D01*
X103681662Y-117742570D01*
X103327327Y-117643637D01*
X102960524Y-117615413D01*
X102595224Y-117658973D01*
X102245342Y-117772656D01*
X101924205Y-117952134D01*
X101644044Y-118190569D01*
X101415532Y-118478880D01*
X101247371Y-118806085D01*
X101145968Y-119159721D01*
X101115184Y-119526319D01*
X98882419Y-119526319D01*
X98885000Y-119500000D01*
X98884265Y-119447368D01*
X98838157Y-119082381D01*
X98722033Y-118733301D01*
X98540318Y-118413425D01*
X98299933Y-118134936D01*
X98010034Y-117908442D01*
X97681662Y-117742570D01*
X97327327Y-117643637D01*
X96960524Y-117615413D01*
X96595224Y-117658973D01*
X96245342Y-117772656D01*
X95924205Y-117952134D01*
X95644044Y-118190569D01*
X95415532Y-118478880D01*
X95247371Y-118806085D01*
X95145968Y-119159721D01*
X95115184Y-119526319D01*
X85890000Y-119526319D01*
X85890000Y-114526319D01*
X95115184Y-114526319D01*
X95156192Y-114891914D01*
X95267430Y-115242580D01*
X95444661Y-115564963D01*
X95681135Y-115846781D01*
X95967843Y-116077301D01*
X96293867Y-116247742D01*
X96646786Y-116351611D01*
X97013160Y-116384954D01*
X97379032Y-116346499D01*
X97730467Y-116237712D01*
X98054079Y-116062736D01*
X98337541Y-115828235D01*
X98570057Y-115543143D01*
X98742769Y-115218318D01*
X98849100Y-114866132D01*
X98882419Y-114526319D01*
X101115184Y-114526319D01*
X101156192Y-114891914D01*
X101267430Y-115242580D01*
X101444661Y-115564963D01*
X101681135Y-115846781D01*
X101967843Y-116077301D01*
X102293867Y-116247742D01*
X102646786Y-116351611D01*
X103013160Y-116384954D01*
X103379032Y-116346499D01*
X103730467Y-116237712D01*
X104054079Y-116062736D01*
X104337541Y-115828235D01*
X104570057Y-115543143D01*
X104742769Y-115218318D01*
X104849100Y-114866132D01*
X104885000Y-114500000D01*
X104884265Y-114447368D01*
X104838157Y-114082381D01*
X104722033Y-113733301D01*
X104540318Y-113413425D01*
X104299933Y-113134936D01*
X104010034Y-112908442D01*
X103681662Y-112742570D01*
X103327327Y-112643637D01*
X102960524Y-112615413D01*
X102595224Y-112658973D01*
X102245342Y-112772656D01*
X101924205Y-112952134D01*
X101644044Y-113190569D01*
X101415532Y-113478880D01*
X101247371Y-113806085D01*
X101145968Y-114159721D01*
X101115184Y-114526319D01*
X98882419Y-114526319D01*
X98885000Y-114500000D01*
X98884265Y-114447368D01*
X98838157Y-114082381D01*
X98722033Y-113733301D01*
X98540318Y-113413425D01*
X98299933Y-113134936D01*
X98010034Y-112908442D01*
X97681662Y-112742570D01*
X97327327Y-112643637D01*
X96960524Y-112615413D01*
X96595224Y-112658973D01*
X96245342Y-112772656D01*
X95924205Y-112952134D01*
X95644044Y-113190569D01*
X95415532Y-113478880D01*
X95247371Y-113806085D01*
X95145968Y-114159721D01*
X95115184Y-114526319D01*
X85890000Y-114526319D01*
X85890000Y-111849867D01*
X85927516Y-111906014D01*
X86343986Y-112322484D01*
X86833704Y-112649703D01*
X87377849Y-112875096D01*
X87955511Y-112990000D01*
X88544489Y-112990000D01*
X89122151Y-112875096D01*
X89666296Y-112649703D01*
X90156014Y-112322484D01*
X90572484Y-111906014D01*
X90899703Y-111416296D01*
X91125096Y-110872151D01*
X91240000Y-110294489D01*
X91240000Y-109705511D01*
X91125096Y-109127849D01*
X90899703Y-108583704D01*
X90572484Y-108093986D01*
X90156014Y-107677516D01*
X89666296Y-107350297D01*
X89122151Y-107124904D01*
X88544489Y-107010000D01*
X87955511Y-107010000D01*
X87377849Y-107124904D01*
X86833704Y-107350297D01*
X86343986Y-107677516D01*
X85927516Y-108093986D01*
X85890000Y-108150133D01*
X85890000Y-106525908D01*
X92610000Y-106525908D01*
X92610000Y-106799714D01*
X92663417Y-107068259D01*
X92768198Y-107321223D01*
X92920316Y-107548885D01*
X93113926Y-107742495D01*
X93341588Y-107894613D01*
X93594552Y-107999394D01*
X93863097Y-108052811D01*
X94136903Y-108052811D01*
X94405448Y-107999394D01*
X94658412Y-107894613D01*
X94886074Y-107742495D01*
X95079684Y-107548885D01*
X95231802Y-107321223D01*
X95336583Y-107068259D01*
X95390000Y-106799714D01*
X95390000Y-106525908D01*
X96610000Y-106525908D01*
X96610000Y-106799714D01*
X96663417Y-107068259D01*
X96768198Y-107321223D01*
X96920316Y-107548885D01*
X97113926Y-107742495D01*
X97341588Y-107894613D01*
X97594552Y-107999394D01*
X97863097Y-108052811D01*
X98136903Y-108052811D01*
X98405448Y-107999394D01*
X98658412Y-107894613D01*
X98886074Y-107742495D01*
X99079684Y-107548885D01*
X99231802Y-107321223D01*
X99336583Y-107068259D01*
X99390000Y-106799714D01*
X99390000Y-106525908D01*
X100610000Y-106525908D01*
X100610000Y-106799714D01*
X100663417Y-107068259D01*
X100768198Y-107321223D01*
X100920316Y-107548885D01*
X101113926Y-107742495D01*
X101341588Y-107894613D01*
X101594552Y-107999394D01*
X101863097Y-108052811D01*
X102136903Y-108052811D01*
X102405448Y-107999394D01*
X102658412Y-107894613D01*
X102886074Y-107742495D01*
X102920632Y-107707937D01*
X105186805Y-107707937D01*
X105317383Y-107881367D01*
X105568228Y-107991124D01*
X105835666Y-108049835D01*
X106109418Y-108055244D01*
X106378966Y-108007142D01*
X106633951Y-107907378D01*
X106682617Y-107881367D01*
X106813195Y-107707937D01*
X106000000Y-106894742D01*
X105186805Y-107707937D01*
X102920632Y-107707937D01*
X103079684Y-107548885D01*
X103231802Y-107321223D01*
X103336583Y-107068259D01*
X103390000Y-106799714D01*
X103390000Y-106772229D01*
X104607567Y-106772229D01*
X104655669Y-107041777D01*
X104755433Y-107296762D01*
X104781444Y-107345428D01*
X104954874Y-107476006D01*
X105768069Y-106662811D01*
X106231931Y-106662811D01*
X107045126Y-107476006D01*
X107218556Y-107345428D01*
X107328313Y-107094583D01*
X107387024Y-106827145D01*
X107392433Y-106553393D01*
X107344331Y-106283845D01*
X107244567Y-106028860D01*
X107218556Y-105980194D01*
X107045126Y-105849616D01*
X106231931Y-106662811D01*
X105768069Y-106662811D01*
X104954874Y-105849616D01*
X104781444Y-105980194D01*
X104671687Y-106231039D01*
X104612976Y-106498477D01*
X104607567Y-106772229D01*
X103390000Y-106772229D01*
X103390000Y-106525908D01*
X103336583Y-106257363D01*
X103231802Y-106004399D01*
X103079684Y-105776737D01*
X102920632Y-105617685D01*
X105186805Y-105617685D01*
X106000000Y-106430880D01*
X106813195Y-105617685D01*
X106682617Y-105444255D01*
X106431772Y-105334498D01*
X106164334Y-105275787D01*
X105890582Y-105270378D01*
X105621034Y-105318480D01*
X105366049Y-105418244D01*
X105317383Y-105444255D01*
X105186805Y-105617685D01*
X102920632Y-105617685D01*
X102886074Y-105583127D01*
X102658412Y-105431009D01*
X102405448Y-105326228D01*
X102136903Y-105272811D01*
X101863097Y-105272811D01*
X101594552Y-105326228D01*
X101341588Y-105431009D01*
X101113926Y-105583127D01*
X100920316Y-105776737D01*
X100768198Y-106004399D01*
X100663417Y-106257363D01*
X100610000Y-106525908D01*
X99390000Y-106525908D01*
X99336583Y-106257363D01*
X99231802Y-106004399D01*
X99079684Y-105776737D01*
X98886074Y-105583127D01*
X98658412Y-105431009D01*
X98405448Y-105326228D01*
X98136903Y-105272811D01*
X97863097Y-105272811D01*
X97594552Y-105326228D01*
X97341588Y-105431009D01*
X97113926Y-105583127D01*
X96920316Y-105776737D01*
X96768198Y-106004399D01*
X96663417Y-106257363D01*
X96610000Y-106525908D01*
X95390000Y-106525908D01*
X95336583Y-106257363D01*
X95231802Y-106004399D01*
X95079684Y-105776737D01*
X94886074Y-105583127D01*
X94658412Y-105431009D01*
X94405448Y-105326228D01*
X94136903Y-105272811D01*
X93863097Y-105272811D01*
X93594552Y-105326228D01*
X93341588Y-105431009D01*
X93113926Y-105583127D01*
X92920316Y-105776737D01*
X92768198Y-106004399D01*
X92663417Y-106257363D01*
X92610000Y-106525908D01*
X85890000Y-106525908D01*
X85890000Y-103045126D01*
X88186805Y-103045126D01*
X88317383Y-103218556D01*
X88568228Y-103328313D01*
X88835666Y-103387024D01*
X89109418Y-103392433D01*
X89378966Y-103344331D01*
X89633951Y-103244567D01*
X89682617Y-103218556D01*
X89813195Y-103045126D01*
X89000000Y-102231931D01*
X88186805Y-103045126D01*
X85890000Y-103045126D01*
X85890000Y-102109418D01*
X87607567Y-102109418D01*
X87655669Y-102378966D01*
X87755433Y-102633951D01*
X87781444Y-102682617D01*
X87954874Y-102813195D01*
X88768069Y-102000000D01*
X89231931Y-102000000D01*
X90045126Y-102813195D01*
X90218556Y-102682617D01*
X90328313Y-102431772D01*
X90387024Y-102164334D01*
X90391525Y-101936500D01*
X97710000Y-101936500D01*
X97710000Y-103078563D01*
X97721145Y-103134590D01*
X97743006Y-103187367D01*
X97774743Y-103234865D01*
X97815136Y-103275258D01*
X97862634Y-103306995D01*
X97915411Y-103328856D01*
X97971438Y-103340000D01*
X99763500Y-103340000D01*
X99836000Y-103267500D01*
X99836000Y-101864000D01*
X100164000Y-101864000D01*
X100164000Y-103267500D01*
X100236500Y-103340000D01*
X102028562Y-103340000D01*
X102084589Y-103328856D01*
X102137366Y-103306995D01*
X102184864Y-103275258D01*
X102225257Y-103234865D01*
X102256994Y-103187367D01*
X102278855Y-103134590D01*
X102290000Y-103078563D01*
X102290000Y-101936500D01*
X102217500Y-101864000D01*
X100164000Y-101864000D01*
X99836000Y-101864000D01*
X97782500Y-101864000D01*
X97710000Y-101936500D01*
X90391525Y-101936500D01*
X90392433Y-101890582D01*
X90344331Y-101621034D01*
X90244567Y-101366049D01*
X90218556Y-101317383D01*
X90045126Y-101186805D01*
X89231931Y-102000000D01*
X88768069Y-102000000D01*
X87954874Y-101186805D01*
X87781444Y-101317383D01*
X87671687Y-101568228D01*
X87612976Y-101835666D01*
X87607567Y-102109418D01*
X85890000Y-102109418D01*
X85890000Y-100954874D01*
X88186805Y-100954874D01*
X89000000Y-101768069D01*
X89813195Y-100954874D01*
X89682617Y-100781444D01*
X89431772Y-100671687D01*
X89164334Y-100612976D01*
X88890582Y-100607567D01*
X88621034Y-100655669D01*
X88366049Y-100755433D01*
X88317383Y-100781444D01*
X88186805Y-100954874D01*
X85890000Y-100954874D01*
X85890000Y-100321437D01*
X97710000Y-100321437D01*
X97710000Y-101463500D01*
X97782500Y-101536000D01*
X99836000Y-101536000D01*
X99836000Y-100132500D01*
X100164000Y-100132500D01*
X100164000Y-101536000D01*
X102217500Y-101536000D01*
X102290000Y-101463500D01*
X102290000Y-100321437D01*
X102278855Y-100265410D01*
X102256994Y-100212633D01*
X102225257Y-100165135D01*
X102184864Y-100124742D01*
X102137366Y-100093005D01*
X102084589Y-100071144D01*
X102028562Y-100060000D01*
X100236500Y-100060000D01*
X100164000Y-100132500D01*
X99836000Y-100132500D01*
X99763500Y-100060000D01*
X97971438Y-100060000D01*
X97915411Y-100071144D01*
X97862634Y-100093005D01*
X97815136Y-100124742D01*
X97774743Y-100165135D01*
X97743006Y-100212633D01*
X97721145Y-100265410D01*
X97710000Y-100321437D01*
X85890000Y-100321437D01*
X85890000Y-97863097D01*
X87610000Y-97863097D01*
X87610000Y-98136903D01*
X87663417Y-98405448D01*
X87768198Y-98658412D01*
X87920316Y-98886074D01*
X88113926Y-99079684D01*
X88341588Y-99231802D01*
X88594552Y-99336583D01*
X88863097Y-99390000D01*
X89136903Y-99390000D01*
X89405448Y-99336583D01*
X89658412Y-99231802D01*
X89886074Y-99079684D01*
X90079684Y-98886074D01*
X90231802Y-98658412D01*
X90336583Y-98405448D01*
X90390000Y-98136903D01*
X90390000Y-97863097D01*
X90336583Y-97594552D01*
X90231802Y-97341588D01*
X90079684Y-97113926D01*
X89886074Y-96920316D01*
X89658412Y-96768198D01*
X89405448Y-96663417D01*
X89136903Y-96610000D01*
X88863097Y-96610000D01*
X88594552Y-96663417D01*
X88341588Y-96768198D01*
X88113926Y-96920316D01*
X87920316Y-97113926D01*
X87768198Y-97341588D01*
X87663417Y-97594552D01*
X87610000Y-97863097D01*
X85890000Y-97863097D01*
X85890000Y-95650000D01*
X97708597Y-95650000D01*
X97708597Y-98350000D01*
X97714196Y-98406850D01*
X97730779Y-98461515D01*
X97757707Y-98511895D01*
X97793947Y-98556053D01*
X97838105Y-98592293D01*
X97888485Y-98619221D01*
X97943150Y-98635804D01*
X98000000Y-98641403D01*
X102000000Y-98641403D01*
X102056850Y-98635804D01*
X102111515Y-98619221D01*
X102161895Y-98592293D01*
X102206053Y-98556053D01*
X102242293Y-98511895D01*
X102269221Y-98461515D01*
X102285804Y-98406850D01*
X102291403Y-98350000D01*
X102291403Y-95650000D01*
X102285804Y-95593150D01*
X102269221Y-95538485D01*
X102242293Y-95488105D01*
X102206053Y-95443947D01*
X102161895Y-95407707D01*
X102111515Y-95380779D01*
X102056850Y-95364196D01*
X102000000Y-95358597D01*
X98000000Y-95358597D01*
X97943150Y-95364196D01*
X97888485Y-95380779D01*
X97838105Y-95407707D01*
X97793947Y-95443947D01*
X97757707Y-95488105D01*
X97730779Y-95538485D01*
X97714196Y-95593150D01*
X97708597Y-95650000D01*
X85890000Y-95650000D01*
X85890000Y-94557041D01*
X93710000Y-94557041D01*
X93710000Y-94692959D01*
X93736516Y-94826266D01*
X93788530Y-94951838D01*
X93864042Y-95064850D01*
X93960150Y-95160958D01*
X94073162Y-95236470D01*
X94198734Y-95288484D01*
X94332041Y-95315000D01*
X94467959Y-95315000D01*
X94601266Y-95288484D01*
X94726838Y-95236470D01*
X94839850Y-95160958D01*
X94935958Y-95064850D01*
X94952562Y-95040000D01*
X97247438Y-95040000D01*
X97264042Y-95064850D01*
X97360150Y-95160958D01*
X97473162Y-95236470D01*
X97598734Y-95288484D01*
X97732041Y-95315000D01*
X97867959Y-95315000D01*
X98001266Y-95288484D01*
X98126838Y-95236470D01*
X98239850Y-95160958D01*
X98335958Y-95064850D01*
X98411470Y-94951838D01*
X98463484Y-94826266D01*
X98490000Y-94692959D01*
X98490000Y-94557041D01*
X98463484Y-94423734D01*
X98411470Y-94298162D01*
X98335958Y-94185150D01*
X98239850Y-94089042D01*
X98126838Y-94013530D01*
X98001266Y-93961516D01*
X97867959Y-93935000D01*
X97732041Y-93935000D01*
X97598734Y-93961516D01*
X97473162Y-94013530D01*
X97360150Y-94089042D01*
X97264042Y-94185150D01*
X97247438Y-94210000D01*
X94952562Y-94210000D01*
X94935958Y-94185150D01*
X94839850Y-94089042D01*
X94726838Y-94013530D01*
X94601266Y-93961516D01*
X94467959Y-93935000D01*
X94332041Y-93935000D01*
X94198734Y-93961516D01*
X94073162Y-94013530D01*
X93960150Y-94089042D01*
X93864042Y-94185150D01*
X93788530Y-94298162D01*
X93736516Y-94423734D01*
X93710000Y-94557041D01*
X85890000Y-94557041D01*
X85890000Y-90950000D01*
X97708597Y-90950000D01*
X97708597Y-93650000D01*
X97714196Y-93706850D01*
X97730779Y-93761515D01*
X97757707Y-93811895D01*
X97793947Y-93856053D01*
X97838105Y-93892293D01*
X97888485Y-93919221D01*
X97943150Y-93935804D01*
X98000000Y-93941403D01*
X102000000Y-93941403D01*
X102056850Y-93935804D01*
X102111515Y-93919221D01*
X102161895Y-93892293D01*
X102206053Y-93856053D01*
X102242293Y-93811895D01*
X102269221Y-93761515D01*
X102285804Y-93706850D01*
X102291403Y-93650000D01*
X102291403Y-90950000D01*
X102285804Y-90893150D01*
X102269221Y-90838485D01*
X102242293Y-90788105D01*
X102206053Y-90743947D01*
X102161895Y-90707707D01*
X102111515Y-90680779D01*
X102056850Y-90664196D01*
X102000000Y-90658597D01*
X98000000Y-90658597D01*
X97943150Y-90664196D01*
X97888485Y-90680779D01*
X97838105Y-90707707D01*
X97793947Y-90743947D01*
X97757707Y-90788105D01*
X97730779Y-90838485D01*
X97714196Y-90893150D01*
X97708597Y-90950000D01*
X85890000Y-90950000D01*
X85890000Y-88607569D01*
X95460000Y-88607569D01*
X95460000Y-88812431D01*
X95499967Y-89013357D01*
X95578364Y-89202625D01*
X95692179Y-89372961D01*
X95837039Y-89517821D01*
X96007375Y-89631636D01*
X96196643Y-89710033D01*
X96397569Y-89750000D01*
X96602431Y-89750000D01*
X96803357Y-89710033D01*
X96992625Y-89631636D01*
X97162961Y-89517821D01*
X97307821Y-89372961D01*
X97421636Y-89202625D01*
X97500033Y-89013357D01*
X97540000Y-88812431D01*
X97540000Y-88607569D01*
X97960000Y-88607569D01*
X97960000Y-88812431D01*
X97999967Y-89013357D01*
X98078364Y-89202625D01*
X98192179Y-89372961D01*
X98337039Y-89517821D01*
X98507375Y-89631636D01*
X98696643Y-89710033D01*
X98897569Y-89750000D01*
X99102431Y-89750000D01*
X99303357Y-89710033D01*
X99492625Y-89631636D01*
X99662961Y-89517821D01*
X99807821Y-89372961D01*
X99921636Y-89202625D01*
X100000000Y-89013437D01*
X100078364Y-89202625D01*
X100192179Y-89372961D01*
X100337039Y-89517821D01*
X100507375Y-89631636D01*
X100696643Y-89710033D01*
X100897569Y-89750000D01*
X101102431Y-89750000D01*
X101303357Y-89710033D01*
X101492625Y-89631636D01*
X101662961Y-89517821D01*
X101676981Y-89503801D01*
X102938130Y-89503801D01*
X103026036Y-89641369D01*
X103216844Y-89715939D01*
X103418534Y-89751852D01*
X103623354Y-89747727D01*
X103823434Y-89703722D01*
X103973964Y-89641369D01*
X104061870Y-89503801D01*
X103500000Y-88941931D01*
X102938130Y-89503801D01*
X101676981Y-89503801D01*
X101807821Y-89372961D01*
X101921636Y-89202625D01*
X102000033Y-89013357D01*
X102040000Y-88812431D01*
X102040000Y-88628534D01*
X102458148Y-88628534D01*
X102462273Y-88833354D01*
X102506278Y-89033434D01*
X102568631Y-89183964D01*
X102706199Y-89271870D01*
X103268069Y-88710000D01*
X103731931Y-88710000D01*
X104293801Y-89271870D01*
X104431369Y-89183964D01*
X104505939Y-88993156D01*
X104541852Y-88791466D01*
X104537727Y-88586646D01*
X104493722Y-88386566D01*
X104431369Y-88236036D01*
X104293801Y-88148130D01*
X103731931Y-88710000D01*
X103268069Y-88710000D01*
X102706199Y-88148130D01*
X102568631Y-88236036D01*
X102494061Y-88426844D01*
X102458148Y-88628534D01*
X102040000Y-88628534D01*
X102040000Y-88607569D01*
X102000033Y-88406643D01*
X101921636Y-88217375D01*
X101807821Y-88047039D01*
X101676981Y-87916199D01*
X102938130Y-87916199D01*
X103500000Y-88478069D01*
X104061870Y-87916199D01*
X103973964Y-87778631D01*
X103783156Y-87704061D01*
X103581466Y-87668148D01*
X103376646Y-87672273D01*
X103176566Y-87716278D01*
X103026036Y-87778631D01*
X102938130Y-87916199D01*
X101676981Y-87916199D01*
X101662961Y-87902179D01*
X101492625Y-87788364D01*
X101303357Y-87709967D01*
X101102431Y-87670000D01*
X100897569Y-87670000D01*
X100696643Y-87709967D01*
X100507375Y-87788364D01*
X100337039Y-87902179D01*
X100192179Y-88047039D01*
X100078364Y-88217375D01*
X100000000Y-88406563D01*
X99921636Y-88217375D01*
X99807821Y-88047039D01*
X99662961Y-87902179D01*
X99492625Y-87788364D01*
X99303357Y-87709967D01*
X99102431Y-87670000D01*
X98897569Y-87670000D01*
X98696643Y-87709967D01*
X98507375Y-87788364D01*
X98337039Y-87902179D01*
X98192179Y-88047039D01*
X98078364Y-88217375D01*
X97999967Y-88406643D01*
X97960000Y-88607569D01*
X97540000Y-88607569D01*
X97500033Y-88406643D01*
X97421636Y-88217375D01*
X97307821Y-88047039D01*
X97162961Y-87902179D01*
X96992625Y-87788364D01*
X96803357Y-87709967D01*
X96602431Y-87670000D01*
X96397569Y-87670000D01*
X96196643Y-87709967D01*
X96007375Y-87788364D01*
X95837039Y-87902179D01*
X95692179Y-88047039D01*
X95578364Y-88217375D01*
X95499967Y-88406643D01*
X95460000Y-88607569D01*
X85890000Y-88607569D01*
X85890000Y-85774455D01*
X91140000Y-85774455D01*
X91140000Y-86225545D01*
X91228004Y-86667968D01*
X91400629Y-87084722D01*
X91651241Y-87459790D01*
X91970210Y-87778759D01*
X92345278Y-88029371D01*
X92762032Y-88201996D01*
X93204455Y-88290000D01*
X93655545Y-88290000D01*
X94097968Y-88201996D01*
X94514722Y-88029371D01*
X94889790Y-87778759D01*
X95208759Y-87459790D01*
X95459371Y-87084722D01*
X95631996Y-86667968D01*
X95720000Y-86225545D01*
X95720000Y-85790000D01*
X104280000Y-85790000D01*
X104280000Y-86225545D01*
X104368004Y-86667968D01*
X104540629Y-87084722D01*
X104791241Y-87459790D01*
X105110210Y-87778759D01*
X105485278Y-88029371D01*
X105780000Y-88151449D01*
X105780001Y-103293996D01*
X105776178Y-103332811D01*
X105791431Y-103487677D01*
X105836604Y-103636593D01*
X105836605Y-103636594D01*
X105909962Y-103773835D01*
X106008684Y-103894128D01*
X106038825Y-103918864D01*
X108313946Y-106193986D01*
X108338683Y-106224128D01*
X108458976Y-106322850D01*
X108596217Y-106396207D01*
X108710519Y-106430880D01*
X108745133Y-106441380D01*
X108900000Y-106456633D01*
X108938806Y-106452811D01*
X109608597Y-106452811D01*
X109608597Y-107662811D01*
X109614196Y-107719661D01*
X109630779Y-107774326D01*
X109657707Y-107824706D01*
X109693947Y-107868864D01*
X109738105Y-107905104D01*
X109788485Y-107932032D01*
X109843150Y-107948615D01*
X109900000Y-107954214D01*
X112100000Y-107954214D01*
X112156850Y-107948615D01*
X112211515Y-107932032D01*
X112261895Y-107905104D01*
X112306053Y-107868864D01*
X112342293Y-107824706D01*
X112369221Y-107774326D01*
X112385804Y-107719661D01*
X112391403Y-107662811D01*
X112391403Y-103662811D01*
X112385804Y-103605961D01*
X112369221Y-103551296D01*
X112342293Y-103500916D01*
X112306053Y-103456758D01*
X112261895Y-103420518D01*
X112211515Y-103393590D01*
X112156850Y-103377007D01*
X112100000Y-103371408D01*
X109900000Y-103371408D01*
X109843150Y-103377007D01*
X109788485Y-103393590D01*
X109738105Y-103420518D01*
X109693947Y-103456758D01*
X109657707Y-103500916D01*
X109630779Y-103551296D01*
X109614196Y-103605961D01*
X109608597Y-103662811D01*
X109608597Y-104872811D01*
X109227229Y-104872811D01*
X107360000Y-103005583D01*
X107360000Y-88151449D01*
X107654722Y-88029371D01*
X108029790Y-87778759D01*
X108348759Y-87459790D01*
X108599371Y-87084722D01*
X108771996Y-86667968D01*
X108860000Y-86225545D01*
X108860000Y-85774455D01*
X108771996Y-85332032D01*
X108599371Y-84915278D01*
X108348759Y-84540210D01*
X108029790Y-84221241D01*
X107654722Y-83970629D01*
X107237968Y-83798004D01*
X106795545Y-83710000D01*
X106344455Y-83710000D01*
X105902032Y-83798004D01*
X105485278Y-83970629D01*
X105127033Y-84210000D01*
X94872967Y-84210000D01*
X94514722Y-83970629D01*
X94097968Y-83798004D01*
X93655545Y-83710000D01*
X93204455Y-83710000D01*
X92762032Y-83798004D01*
X92345278Y-83970629D01*
X91970210Y-84221241D01*
X91651241Y-84540210D01*
X91400629Y-84915278D01*
X91228004Y-85332032D01*
X91140000Y-85774455D01*
X85890000Y-85774455D01*
X85890000Y-84640000D01*
X88769159Y-84640000D01*
X88769833Y-84639934D01*
X88772303Y-84639925D01*
X88789256Y-84638203D01*
X88806291Y-84638322D01*
X88811710Y-84637791D01*
X89394000Y-84576590D01*
X89428655Y-84569476D01*
X89463348Y-84562858D01*
X89468555Y-84561286D01*
X89468559Y-84561285D01*
X89468562Y-84561284D01*
X90027874Y-84388147D01*
X90060466Y-84374447D01*
X90093232Y-84361208D01*
X90098036Y-84358654D01*
X90098041Y-84358652D01*
X90098045Y-84358649D01*
X90613072Y-84080176D01*
X90642348Y-84060430D01*
X90671955Y-84041055D01*
X90676167Y-84037619D01*
X90676174Y-84037614D01*
X90676180Y-84037608D01*
X91127308Y-83664403D01*
X91152225Y-83639311D01*
X91177469Y-83614590D01*
X91180940Y-83610395D01*
X91550992Y-83156666D01*
X91570556Y-83127221D01*
X91590524Y-83098058D01*
X91593111Y-83093274D01*
X91593114Y-83093270D01*
X91593116Y-83093266D01*
X91867988Y-82576304D01*
X91881449Y-82543645D01*
X91895383Y-82511135D01*
X91896993Y-82505933D01*
X92066220Y-81945425D01*
X92073089Y-81910733D01*
X92080434Y-81876176D01*
X92081004Y-81870761D01*
X92138139Y-81288058D01*
X92138139Y-81288054D01*
X92140000Y-81269159D01*
X92140000Y-78390000D01*
X113480922Y-78390000D01*
X113618120Y-78403453D01*
X113618120Y-78403453D01*
G37*
X113618120Y-78403453D02*
X113731740Y-78437756D01*
X113836537Y-78493478D01*
X113928506Y-78568486D01*
X114004164Y-78659940D01*
X114060611Y-78764337D01*
X114095710Y-78877723D01*
X114110000Y-79013683D01*
X114110000Y-88150133D01*
X114072484Y-88093986D01*
X113656014Y-87677516D01*
X113166296Y-87350297D01*
X112622151Y-87124904D01*
X112044489Y-87010000D01*
X111455511Y-87010000D01*
X110877849Y-87124904D01*
X110333704Y-87350297D01*
X109843986Y-87677516D01*
X109427516Y-88093986D01*
X109100297Y-88583704D01*
X108874904Y-89127849D01*
X108760000Y-89705511D01*
X108760000Y-90294489D01*
X108874904Y-90872151D01*
X109100297Y-91416296D01*
X109427516Y-91906014D01*
X109843986Y-92322484D01*
X110333704Y-92649703D01*
X110877849Y-92875096D01*
X111455511Y-92990000D01*
X112044489Y-92990000D01*
X112622151Y-92875096D01*
X113166296Y-92649703D01*
X113656014Y-92322484D01*
X114072484Y-91906014D01*
X114110000Y-91849867D01*
X114110001Y-115360000D01*
X111230841Y-115360000D01*
X111230167Y-115360066D01*
X111227697Y-115360075D01*
X111210744Y-115361797D01*
X111193709Y-115361678D01*
X111188290Y-115362209D01*
X110606000Y-115423410D01*
X110571358Y-115430521D01*
X110536653Y-115437142D01*
X110531440Y-115438715D01*
X109972126Y-115611853D01*
X109939534Y-115625553D01*
X109906768Y-115638792D01*
X109901964Y-115641346D01*
X109901959Y-115641348D01*
X109901955Y-115641351D01*
X109386928Y-115919824D01*
X109357652Y-115939570D01*
X109328045Y-115958945D01*
X109323833Y-115962381D01*
X109323826Y-115962386D01*
X109323820Y-115962392D01*
X108872693Y-116335597D01*
X108847794Y-116360670D01*
X108822531Y-116385410D01*
X108819060Y-116389605D01*
X108449008Y-116843333D01*
X108429454Y-116872763D01*
X108409476Y-116901941D01*
X108406889Y-116906726D01*
X108406886Y-116906730D01*
X108406886Y-116906731D01*
X108132012Y-117423695D01*
X108118540Y-117456380D01*
X108104617Y-117488865D01*
X108103007Y-117494067D01*
X107933780Y-118054575D01*
X107926918Y-118089230D01*
X107919565Y-118123824D01*
X107918996Y-118129240D01*
X107861861Y-118711942D01*
X107860000Y-118730842D01*
X107860001Y-121610000D01*
X86519077Y-121610000D01*
X86381880Y-121596548D01*
X86268261Y-121562244D01*
X86163461Y-121506521D01*
X86071491Y-121431512D01*
X85995836Y-121340061D01*
X85939389Y-121235663D01*
X85904290Y-121122277D01*
X85890000Y-120986317D01*
X85890000Y-119526319D01*
X95115184Y-119526319D01*
X95156192Y-119891914D01*
X95267430Y-120242580D01*
X95444661Y-120564963D01*
X95681135Y-120846781D01*
X95967843Y-121077301D01*
X96293867Y-121247742D01*
X96646786Y-121351611D01*
X97013160Y-121384954D01*
X97379032Y-121346499D01*
X97730467Y-121237712D01*
X98054079Y-121062736D01*
X98337541Y-120828235D01*
X98570057Y-120543143D01*
X98742769Y-120218318D01*
X98849100Y-119866132D01*
X98882419Y-119526319D01*
X101115184Y-119526319D01*
X101156192Y-119891914D01*
X101267430Y-120242580D01*
X101444661Y-120564963D01*
X101681135Y-120846781D01*
X101967843Y-121077301D01*
X102293867Y-121247742D01*
X102646786Y-121351611D01*
X103013160Y-121384954D01*
X103379032Y-121346499D01*
X103730467Y-121237712D01*
X104054079Y-121062736D01*
X104337541Y-120828235D01*
X104570057Y-120543143D01*
X104742769Y-120218318D01*
X104849100Y-119866132D01*
X104885000Y-119500000D01*
X104884265Y-119447368D01*
X104838157Y-119082381D01*
X104722033Y-118733301D01*
X104540318Y-118413425D01*
X104299933Y-118134936D01*
X104010034Y-117908442D01*
X103681662Y-117742570D01*
X103327327Y-117643637D01*
X102960524Y-117615413D01*
X102595224Y-117658973D01*
X102245342Y-117772656D01*
X101924205Y-117952134D01*
X101644044Y-118190569D01*
X101415532Y-118478880D01*
X101247371Y-118806085D01*
X101145968Y-119159721D01*
X101115184Y-119526319D01*
X98882419Y-119526319D01*
X98885000Y-119500000D01*
X98884265Y-119447368D01*
X98838157Y-119082381D01*
X98722033Y-118733301D01*
X98540318Y-118413425D01*
X98299933Y-118134936D01*
X98010034Y-117908442D01*
X97681662Y-117742570D01*
X97327327Y-117643637D01*
X96960524Y-117615413D01*
X96595224Y-117658973D01*
X96245342Y-117772656D01*
X95924205Y-117952134D01*
X95644044Y-118190569D01*
X95415532Y-118478880D01*
X95247371Y-118806085D01*
X95145968Y-119159721D01*
X95115184Y-119526319D01*
X85890000Y-119526319D01*
X85890000Y-114526319D01*
X95115184Y-114526319D01*
X95156192Y-114891914D01*
X95267430Y-115242580D01*
X95444661Y-115564963D01*
X95681135Y-115846781D01*
X95967843Y-116077301D01*
X96293867Y-116247742D01*
X96646786Y-116351611D01*
X97013160Y-116384954D01*
X97379032Y-116346499D01*
X97730467Y-116237712D01*
X98054079Y-116062736D01*
X98337541Y-115828235D01*
X98570057Y-115543143D01*
X98742769Y-115218318D01*
X98849100Y-114866132D01*
X98882419Y-114526319D01*
X101115184Y-114526319D01*
X101156192Y-114891914D01*
X101267430Y-115242580D01*
X101444661Y-115564963D01*
X101681135Y-115846781D01*
X101967843Y-116077301D01*
X102293867Y-116247742D01*
X102646786Y-116351611D01*
X103013160Y-116384954D01*
X103379032Y-116346499D01*
X103730467Y-116237712D01*
X104054079Y-116062736D01*
X104337541Y-115828235D01*
X104570057Y-115543143D01*
X104742769Y-115218318D01*
X104849100Y-114866132D01*
X104885000Y-114500000D01*
X104884265Y-114447368D01*
X104838157Y-114082381D01*
X104722033Y-113733301D01*
X104540318Y-113413425D01*
X104299933Y-113134936D01*
X104010034Y-112908442D01*
X103681662Y-112742570D01*
X103327327Y-112643637D01*
X102960524Y-112615413D01*
X102595224Y-112658973D01*
X102245342Y-112772656D01*
X101924205Y-112952134D01*
X101644044Y-113190569D01*
X101415532Y-113478880D01*
X101247371Y-113806085D01*
X101145968Y-114159721D01*
X101115184Y-114526319D01*
X98882419Y-114526319D01*
X98885000Y-114500000D01*
X98884265Y-114447368D01*
X98838157Y-114082381D01*
X98722033Y-113733301D01*
X98540318Y-113413425D01*
X98299933Y-113134936D01*
X98010034Y-112908442D01*
X97681662Y-112742570D01*
X97327327Y-112643637D01*
X96960524Y-112615413D01*
X96595224Y-112658973D01*
X96245342Y-112772656D01*
X95924205Y-112952134D01*
X95644044Y-113190569D01*
X95415532Y-113478880D01*
X95247371Y-113806085D01*
X95145968Y-114159721D01*
X95115184Y-114526319D01*
X85890000Y-114526319D01*
X85890000Y-111849867D01*
X85927516Y-111906014D01*
X86343986Y-112322484D01*
X86833704Y-112649703D01*
X87377849Y-112875096D01*
X87955511Y-112990000D01*
X88544489Y-112990000D01*
X89122151Y-112875096D01*
X89666296Y-112649703D01*
X90156014Y-112322484D01*
X90572484Y-111906014D01*
X90899703Y-111416296D01*
X91125096Y-110872151D01*
X91240000Y-110294489D01*
X91240000Y-109705511D01*
X91125096Y-109127849D01*
X90899703Y-108583704D01*
X90572484Y-108093986D01*
X90156014Y-107677516D01*
X89666296Y-107350297D01*
X89122151Y-107124904D01*
X88544489Y-107010000D01*
X87955511Y-107010000D01*
X87377849Y-107124904D01*
X86833704Y-107350297D01*
X86343986Y-107677516D01*
X85927516Y-108093986D01*
X85890000Y-108150133D01*
X85890000Y-106525908D01*
X92610000Y-106525908D01*
X92610000Y-106799714D01*
X92663417Y-107068259D01*
X92768198Y-107321223D01*
X92920316Y-107548885D01*
X93113926Y-107742495D01*
X93341588Y-107894613D01*
X93594552Y-107999394D01*
X93863097Y-108052811D01*
X94136903Y-108052811D01*
X94405448Y-107999394D01*
X94658412Y-107894613D01*
X94886074Y-107742495D01*
X95079684Y-107548885D01*
X95231802Y-107321223D01*
X95336583Y-107068259D01*
X95390000Y-106799714D01*
X95390000Y-106525908D01*
X96610000Y-106525908D01*
X96610000Y-106799714D01*
X96663417Y-107068259D01*
X96768198Y-107321223D01*
X96920316Y-107548885D01*
X97113926Y-107742495D01*
X97341588Y-107894613D01*
X97594552Y-107999394D01*
X97863097Y-108052811D01*
X98136903Y-108052811D01*
X98405448Y-107999394D01*
X98658412Y-107894613D01*
X98886074Y-107742495D01*
X99079684Y-107548885D01*
X99231802Y-107321223D01*
X99336583Y-107068259D01*
X99390000Y-106799714D01*
X99390000Y-106525908D01*
X100610000Y-106525908D01*
X100610000Y-106799714D01*
X100663417Y-107068259D01*
X100768198Y-107321223D01*
X100920316Y-107548885D01*
X101113926Y-107742495D01*
X101341588Y-107894613D01*
X101594552Y-107999394D01*
X101863097Y-108052811D01*
X102136903Y-108052811D01*
X102405448Y-107999394D01*
X102658412Y-107894613D01*
X102886074Y-107742495D01*
X102920632Y-107707937D01*
X105186805Y-107707937D01*
X105317383Y-107881367D01*
X105568228Y-107991124D01*
X105835666Y-108049835D01*
X106109418Y-108055244D01*
X106378966Y-108007142D01*
X106633951Y-107907378D01*
X106682617Y-107881367D01*
X106813195Y-107707937D01*
X106000000Y-106894742D01*
X105186805Y-107707937D01*
X102920632Y-107707937D01*
X103079684Y-107548885D01*
X103231802Y-107321223D01*
X103336583Y-107068259D01*
X103390000Y-106799714D01*
X103390000Y-106772229D01*
X104607567Y-106772229D01*
X104655669Y-107041777D01*
X104755433Y-107296762D01*
X104781444Y-107345428D01*
X104954874Y-107476006D01*
X105768069Y-106662811D01*
X106231931Y-106662811D01*
X107045126Y-107476006D01*
X107218556Y-107345428D01*
X107328313Y-107094583D01*
X107387024Y-106827145D01*
X107392433Y-106553393D01*
X107344331Y-106283845D01*
X107244567Y-106028860D01*
X107218556Y-105980194D01*
X107045126Y-105849616D01*
X106231931Y-106662811D01*
X105768069Y-106662811D01*
X104954874Y-105849616D01*
X104781444Y-105980194D01*
X104671687Y-106231039D01*
X104612976Y-106498477D01*
X104607567Y-106772229D01*
X103390000Y-106772229D01*
X103390000Y-106525908D01*
X103336583Y-106257363D01*
X103231802Y-106004399D01*
X103079684Y-105776737D01*
X102920632Y-105617685D01*
X105186805Y-105617685D01*
X106000000Y-106430880D01*
X106813195Y-105617685D01*
X106682617Y-105444255D01*
X106431772Y-105334498D01*
X106164334Y-105275787D01*
X105890582Y-105270378D01*
X105621034Y-105318480D01*
X105366049Y-105418244D01*
X105317383Y-105444255D01*
X105186805Y-105617685D01*
X102920632Y-105617685D01*
X102886074Y-105583127D01*
X102658412Y-105431009D01*
X102405448Y-105326228D01*
X102136903Y-105272811D01*
X101863097Y-105272811D01*
X101594552Y-105326228D01*
X101341588Y-105431009D01*
X101113926Y-105583127D01*
X100920316Y-105776737D01*
X100768198Y-106004399D01*
X100663417Y-106257363D01*
X100610000Y-106525908D01*
X99390000Y-106525908D01*
X99336583Y-106257363D01*
X99231802Y-106004399D01*
X99079684Y-105776737D01*
X98886074Y-105583127D01*
X98658412Y-105431009D01*
X98405448Y-105326228D01*
X98136903Y-105272811D01*
X97863097Y-105272811D01*
X97594552Y-105326228D01*
X97341588Y-105431009D01*
X97113926Y-105583127D01*
X96920316Y-105776737D01*
X96768198Y-106004399D01*
X96663417Y-106257363D01*
X96610000Y-106525908D01*
X95390000Y-106525908D01*
X95336583Y-106257363D01*
X95231802Y-106004399D01*
X95079684Y-105776737D01*
X94886074Y-105583127D01*
X94658412Y-105431009D01*
X94405448Y-105326228D01*
X94136903Y-105272811D01*
X93863097Y-105272811D01*
X93594552Y-105326228D01*
X93341588Y-105431009D01*
X93113926Y-105583127D01*
X92920316Y-105776737D01*
X92768198Y-106004399D01*
X92663417Y-106257363D01*
X92610000Y-106525908D01*
X85890000Y-106525908D01*
X85890000Y-103045126D01*
X88186805Y-103045126D01*
X88317383Y-103218556D01*
X88568228Y-103328313D01*
X88835666Y-103387024D01*
X89109418Y-103392433D01*
X89378966Y-103344331D01*
X89633951Y-103244567D01*
X89682617Y-103218556D01*
X89813195Y-103045126D01*
X89000000Y-102231931D01*
X88186805Y-103045126D01*
X85890000Y-103045126D01*
X85890000Y-102109418D01*
X87607567Y-102109418D01*
X87655669Y-102378966D01*
X87755433Y-102633951D01*
X87781444Y-102682617D01*
X87954874Y-102813195D01*
X88768069Y-102000000D01*
X89231931Y-102000000D01*
X90045126Y-102813195D01*
X90218556Y-102682617D01*
X90328313Y-102431772D01*
X90387024Y-102164334D01*
X90391525Y-101936500D01*
X97710000Y-101936500D01*
X97710000Y-103078563D01*
X97721145Y-103134590D01*
X97743006Y-103187367D01*
X97774743Y-103234865D01*
X97815136Y-103275258D01*
X97862634Y-103306995D01*
X97915411Y-103328856D01*
X97971438Y-103340000D01*
X99763500Y-103340000D01*
X99836000Y-103267500D01*
X99836000Y-101864000D01*
X100164000Y-101864000D01*
X100164000Y-103267500D01*
X100236500Y-103340000D01*
X102028562Y-103340000D01*
X102084589Y-103328856D01*
X102137366Y-103306995D01*
X102184864Y-103275258D01*
X102225257Y-103234865D01*
X102256994Y-103187367D01*
X102278855Y-103134590D01*
X102290000Y-103078563D01*
X102290000Y-101936500D01*
X102217500Y-101864000D01*
X100164000Y-101864000D01*
X99836000Y-101864000D01*
X97782500Y-101864000D01*
X97710000Y-101936500D01*
X90391525Y-101936500D01*
X90392433Y-101890582D01*
X90344331Y-101621034D01*
X90244567Y-101366049D01*
X90218556Y-101317383D01*
X90045126Y-101186805D01*
X89231931Y-102000000D01*
X88768069Y-102000000D01*
X87954874Y-101186805D01*
X87781444Y-101317383D01*
X87671687Y-101568228D01*
X87612976Y-101835666D01*
X87607567Y-102109418D01*
X85890000Y-102109418D01*
X85890000Y-100954874D01*
X88186805Y-100954874D01*
X89000000Y-101768069D01*
X89813195Y-100954874D01*
X89682617Y-100781444D01*
X89431772Y-100671687D01*
X89164334Y-100612976D01*
X88890582Y-100607567D01*
X88621034Y-100655669D01*
X88366049Y-100755433D01*
X88317383Y-100781444D01*
X88186805Y-100954874D01*
X85890000Y-100954874D01*
X85890000Y-100321437D01*
X97710000Y-100321437D01*
X97710000Y-101463500D01*
X97782500Y-101536000D01*
X99836000Y-101536000D01*
X99836000Y-100132500D01*
X100164000Y-100132500D01*
X100164000Y-101536000D01*
X102217500Y-101536000D01*
X102290000Y-101463500D01*
X102290000Y-100321437D01*
X102278855Y-100265410D01*
X102256994Y-100212633D01*
X102225257Y-100165135D01*
X102184864Y-100124742D01*
X102137366Y-100093005D01*
X102084589Y-100071144D01*
X102028562Y-100060000D01*
X100236500Y-100060000D01*
X100164000Y-100132500D01*
X99836000Y-100132500D01*
X99763500Y-100060000D01*
X97971438Y-100060000D01*
X97915411Y-100071144D01*
X97862634Y-100093005D01*
X97815136Y-100124742D01*
X97774743Y-100165135D01*
X97743006Y-100212633D01*
X97721145Y-100265410D01*
X97710000Y-100321437D01*
X85890000Y-100321437D01*
X85890000Y-97863097D01*
X87610000Y-97863097D01*
X87610000Y-98136903D01*
X87663417Y-98405448D01*
X87768198Y-98658412D01*
X87920316Y-98886074D01*
X88113926Y-99079684D01*
X88341588Y-99231802D01*
X88594552Y-99336583D01*
X88863097Y-99390000D01*
X89136903Y-99390000D01*
X89405448Y-99336583D01*
X89658412Y-99231802D01*
X89886074Y-99079684D01*
X90079684Y-98886074D01*
X90231802Y-98658412D01*
X90336583Y-98405448D01*
X90390000Y-98136903D01*
X90390000Y-97863097D01*
X90336583Y-97594552D01*
X90231802Y-97341588D01*
X90079684Y-97113926D01*
X89886074Y-96920316D01*
X89658412Y-96768198D01*
X89405448Y-96663417D01*
X89136903Y-96610000D01*
X88863097Y-96610000D01*
X88594552Y-96663417D01*
X88341588Y-96768198D01*
X88113926Y-96920316D01*
X87920316Y-97113926D01*
X87768198Y-97341588D01*
X87663417Y-97594552D01*
X87610000Y-97863097D01*
X85890000Y-97863097D01*
X85890000Y-95650000D01*
X97708597Y-95650000D01*
X97708597Y-98350000D01*
X97714196Y-98406850D01*
X97730779Y-98461515D01*
X97757707Y-98511895D01*
X97793947Y-98556053D01*
X97838105Y-98592293D01*
X97888485Y-98619221D01*
X97943150Y-98635804D01*
X98000000Y-98641403D01*
X102000000Y-98641403D01*
X102056850Y-98635804D01*
X102111515Y-98619221D01*
X102161895Y-98592293D01*
X102206053Y-98556053D01*
X102242293Y-98511895D01*
X102269221Y-98461515D01*
X102285804Y-98406850D01*
X102291403Y-98350000D01*
X102291403Y-95650000D01*
X102285804Y-95593150D01*
X102269221Y-95538485D01*
X102242293Y-95488105D01*
X102206053Y-95443947D01*
X102161895Y-95407707D01*
X102111515Y-95380779D01*
X102056850Y-95364196D01*
X102000000Y-95358597D01*
X98000000Y-95358597D01*
X97943150Y-95364196D01*
X97888485Y-95380779D01*
X97838105Y-95407707D01*
X97793947Y-95443947D01*
X97757707Y-95488105D01*
X97730779Y-95538485D01*
X97714196Y-95593150D01*
X97708597Y-95650000D01*
X85890000Y-95650000D01*
X85890000Y-94557041D01*
X93710000Y-94557041D01*
X93710000Y-94692959D01*
X93736516Y-94826266D01*
X93788530Y-94951838D01*
X93864042Y-95064850D01*
X93960150Y-95160958D01*
X94073162Y-95236470D01*
X94198734Y-95288484D01*
X94332041Y-95315000D01*
X94467959Y-95315000D01*
X94601266Y-95288484D01*
X94726838Y-95236470D01*
X94839850Y-95160958D01*
X94935958Y-95064850D01*
X94952562Y-95040000D01*
X97247438Y-95040000D01*
X97264042Y-95064850D01*
X97360150Y-95160958D01*
X97473162Y-95236470D01*
X97598734Y-95288484D01*
X97732041Y-95315000D01*
X97867959Y-95315000D01*
X98001266Y-95288484D01*
X98126838Y-95236470D01*
X98239850Y-95160958D01*
X98335958Y-95064850D01*
X98411470Y-94951838D01*
X98463484Y-94826266D01*
X98490000Y-94692959D01*
X98490000Y-94557041D01*
X98463484Y-94423734D01*
X98411470Y-94298162D01*
X98335958Y-94185150D01*
X98239850Y-94089042D01*
X98126838Y-94013530D01*
X98001266Y-93961516D01*
X97867959Y-93935000D01*
X97732041Y-93935000D01*
X97598734Y-93961516D01*
X97473162Y-94013530D01*
X97360150Y-94089042D01*
X97264042Y-94185150D01*
X97247438Y-94210000D01*
X94952562Y-94210000D01*
X94935958Y-94185150D01*
X94839850Y-94089042D01*
X94726838Y-94013530D01*
X94601266Y-93961516D01*
X94467959Y-93935000D01*
X94332041Y-93935000D01*
X94198734Y-93961516D01*
X94073162Y-94013530D01*
X93960150Y-94089042D01*
X93864042Y-94185150D01*
X93788530Y-94298162D01*
X93736516Y-94423734D01*
X93710000Y-94557041D01*
X85890000Y-94557041D01*
X85890000Y-90950000D01*
X97708597Y-90950000D01*
X97708597Y-93650000D01*
X97714196Y-93706850D01*
X97730779Y-93761515D01*
X97757707Y-93811895D01*
X97793947Y-93856053D01*
X97838105Y-93892293D01*
X97888485Y-93919221D01*
X97943150Y-93935804D01*
X98000000Y-93941403D01*
X102000000Y-93941403D01*
X102056850Y-93935804D01*
X102111515Y-93919221D01*
X102161895Y-93892293D01*
X102206053Y-93856053D01*
X102242293Y-93811895D01*
X102269221Y-93761515D01*
X102285804Y-93706850D01*
X102291403Y-93650000D01*
X102291403Y-90950000D01*
X102285804Y-90893150D01*
X102269221Y-90838485D01*
X102242293Y-90788105D01*
X102206053Y-90743947D01*
X102161895Y-90707707D01*
X102111515Y-90680779D01*
X102056850Y-90664196D01*
X102000000Y-90658597D01*
X98000000Y-90658597D01*
X97943150Y-90664196D01*
X97888485Y-90680779D01*
X97838105Y-90707707D01*
X97793947Y-90743947D01*
X97757707Y-90788105D01*
X97730779Y-90838485D01*
X97714196Y-90893150D01*
X97708597Y-90950000D01*
X85890000Y-90950000D01*
X85890000Y-88607569D01*
X95460000Y-88607569D01*
X95460000Y-88812431D01*
X95499967Y-89013357D01*
X95578364Y-89202625D01*
X95692179Y-89372961D01*
X95837039Y-89517821D01*
X96007375Y-89631636D01*
X96196643Y-89710033D01*
X96397569Y-89750000D01*
X96602431Y-89750000D01*
X96803357Y-89710033D01*
X96992625Y-89631636D01*
X97162961Y-89517821D01*
X97307821Y-89372961D01*
X97421636Y-89202625D01*
X97500033Y-89013357D01*
X97540000Y-88812431D01*
X97540000Y-88607569D01*
X97960000Y-88607569D01*
X97960000Y-88812431D01*
X97999967Y-89013357D01*
X98078364Y-89202625D01*
X98192179Y-89372961D01*
X98337039Y-89517821D01*
X98507375Y-89631636D01*
X98696643Y-89710033D01*
X98897569Y-89750000D01*
X99102431Y-89750000D01*
X99303357Y-89710033D01*
X99492625Y-89631636D01*
X99662961Y-89517821D01*
X99807821Y-89372961D01*
X99921636Y-89202625D01*
X100000000Y-89013437D01*
X100078364Y-89202625D01*
X100192179Y-89372961D01*
X100337039Y-89517821D01*
X100507375Y-89631636D01*
X100696643Y-89710033D01*
X100897569Y-89750000D01*
X101102431Y-89750000D01*
X101303357Y-89710033D01*
X101492625Y-89631636D01*
X101662961Y-89517821D01*
X101676981Y-89503801D01*
X102938130Y-89503801D01*
X103026036Y-89641369D01*
X103216844Y-89715939D01*
X103418534Y-89751852D01*
X103623354Y-89747727D01*
X103823434Y-89703722D01*
X103973964Y-89641369D01*
X104061870Y-89503801D01*
X103500000Y-88941931D01*
X102938130Y-89503801D01*
X101676981Y-89503801D01*
X101807821Y-89372961D01*
X101921636Y-89202625D01*
X102000033Y-89013357D01*
X102040000Y-88812431D01*
X102040000Y-88628534D01*
X102458148Y-88628534D01*
X102462273Y-88833354D01*
X102506278Y-89033434D01*
X102568631Y-89183964D01*
X102706199Y-89271870D01*
X103268069Y-88710000D01*
X103731931Y-88710000D01*
X104293801Y-89271870D01*
X104431369Y-89183964D01*
X104505939Y-88993156D01*
X104541852Y-88791466D01*
X104537727Y-88586646D01*
X104493722Y-88386566D01*
X104431369Y-88236036D01*
X104293801Y-88148130D01*
X103731931Y-88710000D01*
X103268069Y-88710000D01*
X102706199Y-88148130D01*
X102568631Y-88236036D01*
X102494061Y-88426844D01*
X102458148Y-88628534D01*
X102040000Y-88628534D01*
X102040000Y-88607569D01*
X102000033Y-88406643D01*
X101921636Y-88217375D01*
X101807821Y-88047039D01*
X101676981Y-87916199D01*
X102938130Y-87916199D01*
X103500000Y-88478069D01*
X104061870Y-87916199D01*
X103973964Y-87778631D01*
X103783156Y-87704061D01*
X103581466Y-87668148D01*
X103376646Y-87672273D01*
X103176566Y-87716278D01*
X103026036Y-87778631D01*
X102938130Y-87916199D01*
X101676981Y-87916199D01*
X101662961Y-87902179D01*
X101492625Y-87788364D01*
X101303357Y-87709967D01*
X101102431Y-87670000D01*
X100897569Y-87670000D01*
X100696643Y-87709967D01*
X100507375Y-87788364D01*
X100337039Y-87902179D01*
X100192179Y-88047039D01*
X100078364Y-88217375D01*
X100000000Y-88406563D01*
X99921636Y-88217375D01*
X99807821Y-88047039D01*
X99662961Y-87902179D01*
X99492625Y-87788364D01*
X99303357Y-87709967D01*
X99102431Y-87670000D01*
X98897569Y-87670000D01*
X98696643Y-87709967D01*
X98507375Y-87788364D01*
X98337039Y-87902179D01*
X98192179Y-88047039D01*
X98078364Y-88217375D01*
X97999967Y-88406643D01*
X97960000Y-88607569D01*
X97540000Y-88607569D01*
X97500033Y-88406643D01*
X97421636Y-88217375D01*
X97307821Y-88047039D01*
X97162961Y-87902179D01*
X96992625Y-87788364D01*
X96803357Y-87709967D01*
X96602431Y-87670000D01*
X96397569Y-87670000D01*
X96196643Y-87709967D01*
X96007375Y-87788364D01*
X95837039Y-87902179D01*
X95692179Y-88047039D01*
X95578364Y-88217375D01*
X95499967Y-88406643D01*
X95460000Y-88607569D01*
X85890000Y-88607569D01*
X85890000Y-85774455D01*
X91140000Y-85774455D01*
X91140000Y-86225545D01*
X91228004Y-86667968D01*
X91400629Y-87084722D01*
X91651241Y-87459790D01*
X91970210Y-87778759D01*
X92345278Y-88029371D01*
X92762032Y-88201996D01*
X93204455Y-88290000D01*
X93655545Y-88290000D01*
X94097968Y-88201996D01*
X94514722Y-88029371D01*
X94889790Y-87778759D01*
X95208759Y-87459790D01*
X95459371Y-87084722D01*
X95631996Y-86667968D01*
X95720000Y-86225545D01*
X95720000Y-85790000D01*
X104280000Y-85790000D01*
X104280000Y-86225545D01*
X104368004Y-86667968D01*
X104540629Y-87084722D01*
X104791241Y-87459790D01*
X105110210Y-87778759D01*
X105485278Y-88029371D01*
X105780000Y-88151449D01*
X105780001Y-103293996D01*
X105776178Y-103332811D01*
X105791431Y-103487677D01*
X105836604Y-103636593D01*
X105836605Y-103636594D01*
X105909962Y-103773835D01*
X106008684Y-103894128D01*
X106038825Y-103918864D01*
X108313946Y-106193986D01*
X108338683Y-106224128D01*
X108458976Y-106322850D01*
X108596217Y-106396207D01*
X108710519Y-106430880D01*
X108745133Y-106441380D01*
X108900000Y-106456633D01*
X108938806Y-106452811D01*
X109608597Y-106452811D01*
X109608597Y-107662811D01*
X109614196Y-107719661D01*
X109630779Y-107774326D01*
X109657707Y-107824706D01*
X109693947Y-107868864D01*
X109738105Y-107905104D01*
X109788485Y-107932032D01*
X109843150Y-107948615D01*
X109900000Y-107954214D01*
X112100000Y-107954214D01*
X112156850Y-107948615D01*
X112211515Y-107932032D01*
X112261895Y-107905104D01*
X112306053Y-107868864D01*
X112342293Y-107824706D01*
X112369221Y-107774326D01*
X112385804Y-107719661D01*
X112391403Y-107662811D01*
X112391403Y-103662811D01*
X112385804Y-103605961D01*
X112369221Y-103551296D01*
X112342293Y-103500916D01*
X112306053Y-103456758D01*
X112261895Y-103420518D01*
X112211515Y-103393590D01*
X112156850Y-103377007D01*
X112100000Y-103371408D01*
X109900000Y-103371408D01*
X109843150Y-103377007D01*
X109788485Y-103393590D01*
X109738105Y-103420518D01*
X109693947Y-103456758D01*
X109657707Y-103500916D01*
X109630779Y-103551296D01*
X109614196Y-103605961D01*
X109608597Y-103662811D01*
X109608597Y-104872811D01*
X109227229Y-104872811D01*
X107360000Y-103005583D01*
X107360000Y-88151449D01*
X107654722Y-88029371D01*
X108029790Y-87778759D01*
X108348759Y-87459790D01*
X108599371Y-87084722D01*
X108771996Y-86667968D01*
X108860000Y-86225545D01*
X108860000Y-85774455D01*
X108771996Y-85332032D01*
X108599371Y-84915278D01*
X108348759Y-84540210D01*
X108029790Y-84221241D01*
X107654722Y-83970629D01*
X107237968Y-83798004D01*
X106795545Y-83710000D01*
X106344455Y-83710000D01*
X105902032Y-83798004D01*
X105485278Y-83970629D01*
X105127033Y-84210000D01*
X94872967Y-84210000D01*
X94514722Y-83970629D01*
X94097968Y-83798004D01*
X93655545Y-83710000D01*
X93204455Y-83710000D01*
X92762032Y-83798004D01*
X92345278Y-83970629D01*
X91970210Y-84221241D01*
X91651241Y-84540210D01*
X91400629Y-84915278D01*
X91228004Y-85332032D01*
X91140000Y-85774455D01*
X85890000Y-85774455D01*
X85890000Y-84640000D01*
X88769159Y-84640000D01*
X88769833Y-84639934D01*
X88772303Y-84639925D01*
X88789256Y-84638203D01*
X88806291Y-84638322D01*
X88811710Y-84637791D01*
X89394000Y-84576590D01*
X89428655Y-84569476D01*
X89463348Y-84562858D01*
X89468555Y-84561286D01*
X89468559Y-84561285D01*
X89468562Y-84561284D01*
X90027874Y-84388147D01*
X90060466Y-84374447D01*
X90093232Y-84361208D01*
X90098036Y-84358654D01*
X90098041Y-84358652D01*
X90098045Y-84358649D01*
X90613072Y-84080176D01*
X90642348Y-84060430D01*
X90671955Y-84041055D01*
X90676167Y-84037619D01*
X90676174Y-84037614D01*
X90676180Y-84037608D01*
X91127308Y-83664403D01*
X91152225Y-83639311D01*
X91177469Y-83614590D01*
X91180940Y-83610395D01*
X91550992Y-83156666D01*
X91570556Y-83127221D01*
X91590524Y-83098058D01*
X91593111Y-83093274D01*
X91593114Y-83093270D01*
X91593116Y-83093266D01*
X91867988Y-82576304D01*
X91881449Y-82543645D01*
X91895383Y-82511135D01*
X91896993Y-82505933D01*
X92066220Y-81945425D01*
X92073089Y-81910733D01*
X92080434Y-81876176D01*
X92081004Y-81870761D01*
X92138139Y-81288058D01*
X92138139Y-81288054D01*
X92140000Y-81269159D01*
X92140000Y-78390000D01*
X113480922Y-78390000D01*
X113618120Y-78403453D01*
G04 #@! TD*
M02*
